<svg xmlns="http://www.w3.org/2000/svg" viewBox="0 0 92.01 92.01"><defs><style>.cls-1{fill:#1567b2;}</style></defs><title>Asset 1</title><g id="Layer_2" data-name="Layer 2"><g id="Layer_1-2" data-name="Layer 1"><path class="cls-1" d="M45.4,0A46,46,0,1,0,92,45.4,46,46,0,0,0,45.4,0Zm-.1,74H45a6.54,6.54,0,0,1-6.6-6.9,6.47,6.47,0,0,1,6.7-6.5h.2a6.48,6.48,0,0,1,6.6,6.9A6.33,6.33,0,0,1,45.3,74ZM61.7,41.3c-.9,1.3-2.9,2.9-5.5,4.9l-2.8,1.9a7.51,7.51,0,0,0-2.8,3.4,6.56,6.56,0,0,0-.4,2.9v.5H39.5V54c.1-3.7.2-5.9,1.8-7.7,2.4-2.8,7.8-6.3,8-6.4A8.55,8.55,0,0,0,51.2,38a7.13,7.13,0,0,0,1.6-4,7.67,7.67,0,0,0-1.5-4.6c-.9-1.3-2.7-2-5.3-2s-4.3.8-5.4,2.5A9.72,9.72,0,0,0,39,35.3v.5H27.9v-.5c.3-6.8,2.7-11.6,7.2-14.5a18.93,18.93,0,0,1,10.4-2.7c5.3,0,9.9,1.3,13.4,3.9s5.4,6.5,5.4,11.6A12,12,0,0,1,61.7,41.3Z"/></g></g></svg>