<svg id="svg" version="1.1" width="400" height="240" viewBox="0 0 400 240" xmlns="http://www.w3.org/2000/svg" xmlns:xlink="http://www.w3.org/1999/xlink" ><g id="svgg"><path id="path0" d="M175.990 48.019 L 175.990 96.038 87.995 96.038 L 0.000 96.038 0.000 120.048 L 0.000 144.058 87.995 144.058 L 175.990 144.058 175.990 192.077 L 175.990 240.096 200.000 240.096 L 224.010 240.096 224.010 192.077 L 224.010 144.058 312.005 144.058 L 400.000 144.058 400.000 120.048 L 400.000 96.038 312.005 96.038 L 224.010 96.038 224.010 48.019 L 224.010 0.000 200.000 0.000 L 175.990 0.000 175.990 48.019 " stroke="none" fill="#cc0c2c" fill-rule="evenodd"></path><path id="path1" d="M47.463 0.304 C 47.882 0.541,53.952 4.141,55.658 5.164 C 55.881 5.298,57.143 6.051,58.463 6.839 C 59.784 7.626,60.918 8.330,60.984 8.402 C 61.050 8.474,61.375 8.667,61.705 8.831 C 62.035 8.995,62.598 9.317,62.955 9.546 C 63.313 9.776,64.880 10.714,66.437 11.631 C 67.994 12.548,69.322 13.359,69.388 13.432 C 69.454 13.505,69.778 13.719,70.108 13.907 C 72.353 15.184,75.290 16.926,75.390 17.040 C 75.456 17.115,75.780 17.311,76.110 17.474 C 76.441 17.638,76.998 17.960,77.349 18.190 C 77.700 18.420,79.591 19.561,81.551 20.727 C 83.511 21.893,86.357 23.586,87.875 24.490 C 89.394 25.394,90.750 26.223,90.888 26.332 C 91.026 26.441,91.429 26.693,91.782 26.891 C 93.331 27.760,99.291 31.318,99.400 31.439 C 99.466 31.513,99.790 31.726,100.120 31.914 C 102.536 33.289,105.302 34.936,105.402 35.060 C 105.468 35.142,105.684 35.280,105.882 35.367 C 106.080 35.453,106.638 35.769,107.122 36.069 C 107.606 36.369,109.388 37.440,111.084 38.449 C 118.352 42.773,120.663 44.161,120.900 44.344 C 121.038 44.450,121.441 44.700,121.794 44.898 C 123.495 45.852,129.306 49.330,129.412 49.457 C 129.478 49.537,130.813 50.353,132.379 51.271 C 133.945 52.190,135.620 53.186,136.100 53.486 C 136.581 53.785,137.191 54.140,137.455 54.274 C 137.719 54.409,139.340 55.373,141.056 56.416 C 144.274 58.371,150.200 61.938,151.641 62.785 C 152.090 63.049,153.889 64.130,155.640 65.186 C 157.391 66.242,158.959 67.142,159.124 67.184 C 159.289 67.227,159.424 67.362,159.424 67.485 C 159.424 67.607,159.532 67.707,159.664 67.707 C 159.823 67.707,159.904 56.263,159.904 33.854 L 159.904 0.000 103.421 0.004 C 58.471 0.006,47.046 0.068,47.463 0.304 M240.096 33.854 C 240.096 52.473,240.152 67.707,240.221 67.707 C 240.290 67.707,240.803 67.412,241.361 67.052 C 242.818 66.112,243.261 65.844,243.938 65.497 C 244.268 65.328,244.646 65.101,244.778 64.993 C 245.018 64.796,247.155 63.509,253.902 59.494 C 255.882 58.316,259.010 56.440,260.853 55.326 C 262.695 54.213,264.242 53.301,264.291 53.301 C 264.340 53.301,264.831 52.996,265.383 52.623 C 265.935 52.250,267.665 51.197,269.228 50.282 C 270.791 49.368,272.321 48.457,272.630 48.259 C 273.153 47.923,274.424 47.163,282.473 42.378 C 284.190 41.357,285.864 40.337,286.194 40.111 C 286.525 39.885,288.415 38.738,290.396 37.562 C 292.377 36.385,294.179 35.313,294.402 35.178 C 294.624 35.044,296.407 33.979,298.363 32.812 C 300.320 31.644,303.655 29.645,305.775 28.370 C 307.895 27.094,310.974 25.257,312.618 24.286 C 314.261 23.316,315.876 22.336,316.206 22.108 C 316.537 21.880,318.427 20.731,320.408 19.554 C 322.389 18.378,324.190 17.306,324.410 17.171 C 324.631 17.037,326.089 16.175,327.652 15.257 C 329.214 14.339,330.546 13.528,330.612 13.456 C 330.678 13.384,331.002 13.169,331.333 12.978 C 331.663 12.787,333.607 11.632,335.654 10.411 C 337.701 9.189,340.888 7.296,342.737 6.203 C 344.586 5.110,346.206 4.123,346.339 4.010 C 346.471 3.897,348.037 2.950,349.820 1.906 L 353.061 0.008 296.579 0.004 L 240.096 0.000 240.096 33.854 M0.000 54.142 L 0.000 79.952 42.977 79.952 C 66.615 79.952,85.954 79.911,85.954 79.861 C 85.954 79.810,84.415 78.871,82.533 77.773 C 80.651 76.675,79.058 75.711,78.992 75.629 C 78.926 75.548,77.596 74.731,76.036 73.815 C 74.476 72.899,73.018 72.038,72.795 71.903 C 72.571 71.768,70.679 70.633,68.589 69.382 C 66.499 68.131,64.437 66.891,64.006 66.627 C 63.287 66.186,58.695 63.444,56.770 62.305 C 56.324 62.041,54.685 61.056,53.129 60.116 C 51.573 59.176,49.112 57.697,47.659 56.829 C 46.206 55.961,44.910 55.163,44.778 55.055 C 44.646 54.947,44.268 54.720,43.938 54.551 C 43.607 54.381,43.121 54.109,42.857 53.946 C 42.593 53.783,40.669 52.626,38.582 51.375 C 36.495 50.124,33.146 48.112,31.139 46.904 C 27.766 44.875,24.393 42.854,17.647 38.823 C 16.194 37.954,14.898 37.156,14.766 37.048 C 14.634 36.940,14.256 36.713,13.926 36.543 C 13.595 36.374,13.109 36.103,12.845 35.941 C 12.581 35.779,10.906 34.771,9.124 33.701 C 7.341 32.630,4.606 30.985,3.046 30.043 C 1.486 29.102,0.163 28.331,0.105 28.331 C 0.047 28.331,0.000 39.946,0.000 54.142 M397.839 29.532 C 396.741 30.192,395.760 30.732,395.660 30.732 C 395.560 30.732,395.442 30.819,395.398 30.925 C 395.354 31.031,394.039 31.868,392.476 32.786 C 390.913 33.703,389.347 34.628,388.995 34.842 C 384.697 37.451,381.413 39.376,381.261 39.376 C 381.157 39.376,381.036 39.462,380.992 39.567 C 380.948 39.672,379.400 40.653,377.551 41.746 C 375.702 42.838,372.785 44.583,371.068 45.622 C 369.352 46.661,367.677 47.660,367.347 47.841 C 366.145 48.502,365.544 48.862,365.426 48.994 C 365.360 49.068,364.028 49.879,362.465 50.795 C 360.902 51.711,359.369 52.623,359.057 52.821 C 358.746 53.019,357.161 53.975,355.536 54.945 C 353.911 55.915,350.636 57.878,348.259 59.307 C 345.882 60.737,342.705 62.644,341.198 63.546 C 339.691 64.448,338.071 65.428,337.597 65.725 C 337.123 66.021,336.465 66.397,336.134 66.560 C 335.804 66.723,335.480 66.918,335.414 66.993 C 335.348 67.069,334.268 67.734,333.013 68.472 C 331.759 69.211,329.166 70.760,327.251 71.915 C 325.336 73.070,323.480 74.189,323.126 74.402 C 322.772 74.615,320.935 75.705,319.044 76.823 C 317.153 77.940,315.240 79.102,314.792 79.404 L 313.979 79.952 356.989 79.952 L 400.000 79.952 400.000 54.142 C 400.000 39.946,399.963 28.331,399.918 28.331 C 399.873 28.331,398.938 28.872,397.839 29.532 M0.000 185.954 C 0.000 200.150,0.050 211.765,0.112 211.765 C 0.173 211.765,1.488 211.008,3.035 210.084 C 4.581 209.160,5.927 208.403,6.025 208.403 C 6.122 208.403,6.238 208.317,6.283 208.211 C 6.327 208.105,7.641 207.267,9.204 206.350 C 10.767 205.432,12.333 204.495,12.685 204.268 C 13.037 204.040,13.673 203.662,14.098 203.427 C 14.523 203.193,16.090 202.259,17.579 201.352 C 20.826 199.376,27.368 195.462,28.266 194.958 C 28.619 194.760,29.022 194.510,29.160 194.403 C 29.405 194.213,32.657 192.259,38.975 188.505 C 40.670 187.498,42.344 186.487,42.697 186.257 C 43.049 186.027,43.607 185.704,43.938 185.538 C 44.268 185.373,44.646 185.149,44.778 185.041 C 45.018 184.844,47.155 183.557,53.902 179.542 C 55.882 178.364,59.010 176.488,60.853 175.374 C 62.695 174.261,64.242 173.349,64.291 173.349 C 64.340 173.349,64.831 173.044,65.383 172.671 C 65.935 172.298,67.665 171.245,69.228 170.330 C 70.791 169.416,72.321 168.505,72.629 168.307 C 72.937 168.109,74.467 167.200,76.030 166.286 C 77.593 165.372,79.173 164.416,79.542 164.161 C 79.911 163.907,81.583 162.898,83.258 161.921 L 86.303 160.144 43.151 160.144 L 0.000 160.144 0.000 185.954 M314.770 160.705 C 315.230 161.013,316.795 161.953,318.247 162.794 C 319.700 163.634,320.942 164.381,321.008 164.454 C 321.074 164.526,321.423 164.748,321.782 164.946 C 323.234 165.746,329.300 169.371,329.412 169.505 C 329.478 169.585,330.813 170.401,332.379 171.319 C 333.945 172.238,335.620 173.234,336.100 173.534 C 336.581 173.833,337.191 174.188,337.455 174.322 C 337.719 174.457,339.340 175.421,341.056 176.464 C 344.274 178.419,350.200 181.986,351.641 182.833 C 352.090 183.097,353.889 184.178,355.640 185.234 C 357.391 186.291,358.932 187.198,359.064 187.251 C 359.196 187.304,359.358 187.417,359.424 187.502 C 359.490 187.587,360.825 188.408,362.391 189.327 C 363.957 190.245,365.632 191.241,366.112 191.541 C 366.593 191.840,367.203 192.194,367.467 192.327 C 367.731 192.460,369.244 193.365,370.828 194.338 C 372.413 195.311,375.312 197.064,377.271 198.234 C 379.230 199.403,381.012 200.471,381.232 200.606 C 381.453 200.742,382.802 201.552,384.232 202.407 C 385.661 203.262,387.084 204.124,387.393 204.322 C 387.701 204.520,389.594 205.654,391.599 206.843 C 395.858 209.368,395.523 209.167,397.909 210.624 C 398.936 211.252,399.827 211.765,399.888 211.765 C 399.950 211.765,400.000 200.150,400.000 185.954 L 400.000 160.144 356.967 160.144 L 313.934 160.144 314.770 160.705 M159.137 172.827 C 158.782 173.048,157.161 174.023,155.536 174.993 C 153.911 175.963,150.636 177.926,148.259 179.355 C 145.882 180.785,142.705 182.692,141.198 183.594 C 139.691 184.496,138.071 185.477,137.597 185.773 C 137.123 186.069,136.465 186.445,136.134 186.608 C 135.804 186.771,135.480 186.966,135.414 187.042 C 135.348 187.117,134.268 187.781,133.013 188.518 C 131.759 189.255,129.031 190.886,126.952 192.142 C 124.873 193.398,123.036 194.494,122.871 194.578 C 122.705 194.662,120.927 195.727,118.921 196.945 C 116.914 198.163,113.565 200.184,111.478 201.435 C 109.391 202.686,107.467 203.844,107.203 204.006 C 106.939 204.169,106.453 204.441,106.122 204.611 C 105.792 204.780,105.414 205.007,105.282 205.115 C 105.150 205.223,103.854 206.022,102.401 206.890 C 95.330 211.116,92.255 212.958,88.836 215.019 C 86.789 216.252,83.889 217.996,82.392 218.895 C 79.462 220.653,78.848 221.023,77.551 221.813 C 77.089 222.095,76.441 222.459,76.110 222.622 C 75.780 222.786,75.456 222.981,75.390 223.056 C 75.324 223.131,74.352 223.722,73.229 224.370 C 72.107 225.017,71.134 225.617,71.068 225.703 C 71.002 225.788,70.840 225.902,70.708 225.954 C 70.576 226.007,69.033 226.915,67.279 227.971 C 65.525 229.028,63.725 230.108,63.278 230.372 C 61.084 231.669,56.738 234.268,56.050 234.694 C 55.623 234.958,54.011 235.930,52.466 236.855 C 50.922 237.779,49.317 238.741,48.899 238.993 C 48.481 239.244,47.869 239.595,47.539 239.772 C 47.036 240.041,56.092 240.093,103.421 240.095 L 159.904 240.096 159.904 206.242 C 159.904 187.623,159.877 172.397,159.844 172.407 C 159.811 172.416,159.493 172.605,159.137 172.827 M240.096 206.236 L 240.096 240.096 296.579 240.081 C 332.388 240.071,352.885 239.982,352.581 239.838 C 352.317 239.713,350.696 238.755,348.980 237.710 C 347.263 236.665,344.346 234.916,342.497 233.825 C 340.648 232.733,339.082 231.769,339.016 231.682 C 338.950 231.595,338.787 231.481,338.655 231.429 C 338.467 231.353,334.660 229.096,330.807 226.775 C 330.584 226.641,329.125 225.781,327.566 224.865 C 326.006 223.948,324.676 223.130,324.610 223.046 C 324.544 222.963,324.328 222.823,324.130 222.736 C 323.932 222.649,321.987 221.503,319.808 220.190 C 317.629 218.876,314.334 216.909,312.485 215.817 C 310.636 214.725,309.070 213.762,309.004 213.675 C 308.938 213.588,308.775 213.474,308.643 213.421 C 308.455 213.346,304.648 211.089,300.795 208.768 C 300.572 208.633,299.113 207.774,297.554 206.857 C 295.994 205.941,294.664 205.123,294.598 205.039 C 294.532 204.955,294.316 204.816,294.118 204.729 C 293.920 204.642,291.975 203.496,289.796 202.182 C 287.617 200.869,284.322 198.901,282.473 197.810 C 280.624 196.718,279.058 195.759,278.992 195.677 C 278.926 195.596,277.596 194.779,276.036 193.863 C 274.476 192.947,273.018 192.086,272.795 191.951 C 272.571 191.816,270.679 190.682,268.589 189.430 C 266.499 188.179,264.437 186.939,264.006 186.675 C 263.287 186.234,258.695 183.492,256.770 182.353 C 256.324 182.089,254.685 181.104,253.129 180.164 C 251.573 179.224,249.112 177.745,247.659 176.877 C 246.206 176.009,244.910 175.211,244.778 175.103 C 244.646 174.995,244.268 174.772,243.938 174.607 C 243.607 174.442,242.905 174.037,242.377 173.707 C 241.849 173.377,241.119 172.943,240.756 172.742 L 240.096 172.377 240.096 206.236 " stroke="none" fill="#0c1c7c" fill-rule="evenodd"></path><path id="path2" d="M0.005 13.866 L 0.010 27.731 1.386 28.606 C 2.575 29.362,5.548 31.153,8.303 32.773 C 8.752 33.037,10.552 34.118,12.303 35.174 C 14.054 36.230,15.621 37.130,15.786 37.172 C 15.951 37.215,16.086 37.342,16.086 37.455 C 16.086 37.568,16.221 37.695,16.387 37.737 C 16.650 37.806,20.259 39.921,22.772 41.481 C 23.255 41.780,23.866 42.135,24.130 42.270 C 24.394 42.404,26.014 43.368,27.731 44.411 C 30.222 45.925,34.677 48.613,37.891 50.543 C 43.426 53.864,45.542 55.120,45.738 55.198 C 45.870 55.251,46.032 55.364,46.098 55.449 C 46.164 55.534,47.497 56.355,49.059 57.274 C 50.621 58.192,52.080 59.052,52.300 59.185 C 52.521 59.317,55.996 61.405,60.024 63.824 C 64.052 66.243,67.509 68.324,67.707 68.448 C 68.326 68.836,75.604 73.199,78.832 75.119 C 80.528 76.126,82.268 77.167,82.699 77.431 C 83.130 77.695,84.196 78.336,85.067 78.854 C 85.938 79.373,86.595 79.886,86.528 79.995 C 86.461 80.103,66.965 80.192,43.203 80.192 L 0.000 80.192 0.000 88.115 L 0.000 96.038 87.995 96.038 L 175.990 96.038 175.990 48.019 L 175.990 0.000 168.067 0.000 L 160.144 0.000 160.144 33.934 C 160.144 52.597,160.082 67.929,160.006 68.005 C 159.892 68.119,158.575 67.409,156.105 65.901 C 155.883 65.766,153.992 64.631,151.902 63.380 C 149.812 62.128,147.750 60.888,147.319 60.624 C 146.888 60.360,145.303 59.408,143.796 58.508 C 142.289 57.609,139.382 55.867,137.335 54.638 C 135.288 53.409,132.425 51.693,130.972 50.826 C 129.520 49.959,128.223 49.161,128.091 49.053 C 127.959 48.945,127.581 48.721,127.251 48.556 C 126.921 48.391,126.262 48.014,125.787 47.718 C 125.313 47.421,123.422 46.280,121.586 45.180 C 119.750 44.081,116.573 42.175,114.526 40.944 C 111.070 38.867,107.530 36.747,100.960 32.820 C 99.508 31.952,98.211 31.153,98.079 31.045 C 97.947 30.937,97.569 30.714,97.239 30.548 C 96.909 30.382,96.346 30.059,95.988 29.829 C 95.630 29.600,94.064 28.663,92.507 27.748 C 90.950 26.833,89.244 25.799,88.715 25.450 C 88.187 25.101,86.242 23.925,84.394 22.836 C 82.545 21.747,79.358 19.843,77.311 18.605 C 75.264 17.368,72.347 15.626,70.828 14.735 C 69.310 13.844,68.013 13.054,67.947 12.980 C 67.881 12.906,67.557 12.689,67.227 12.498 C 66.420 12.032,59.952 8.195,55.942 5.804 C 54.160 4.741,52.571 3.757,52.411 3.617 C 52.252 3.476,52.077 3.361,52.023 3.361 C 51.969 3.361,50.661 2.605,49.117 1.681 L 46.309 0.000 23.154 0.000 L 0.000 0.000 0.005 13.866 M224.069 47.959 L 224.130 95.918 312.065 95.979 L 400.000 96.039 400.000 88.116 L 400.000 80.192 356.797 80.192 C 333.035 80.192,313.541 80.107,313.476 80.002 C 313.366 79.823,314.858 78.885,322.289 74.463 C 325.441 72.587,326.248 72.104,327.466 71.369 C 327.848 71.137,329.442 70.197,331.007 69.279 C 332.573 68.360,333.908 67.544,333.974 67.464 C 334.072 67.346,338.174 64.883,341.766 62.785 C 342.219 62.521,344.081 61.402,345.904 60.298 C 347.728 59.194,350.606 57.466,352.301 56.456 C 353.995 55.447,355.638 54.460,355.952 54.262 C 356.266 54.064,357.797 53.153,359.354 52.238 C 360.911 51.323,362.617 50.289,363.145 49.940 C 364.013 49.367,370.025 45.784,371.604 44.898 C 371.957 44.700,372.359 44.450,372.497 44.343 C 372.742 44.153,375.994 42.199,382.313 38.445 C 384.007 37.438,385.649 36.453,385.960 36.255 C 386.528 35.894,389.189 34.301,396.158 30.151 L 399.880 27.935 399.942 13.967 L 400.004 0.000 376.841 0.000 L 353.678 0.000 351.811 1.140 C 350.783 1.768,349.760 2.389,349.536 2.521 C 348.404 3.189,343.400 6.184,342.717 6.603 C 342.286 6.867,340.224 8.107,338.134 9.358 C 336.044 10.609,334.150 11.744,333.926 11.879 C 333.484 12.145,328.722 14.995,327.712 15.597 C 327.230 15.884,322.408 18.785,319.522 20.524 C 319.299 20.658,317.850 21.525,316.303 22.449 C 314.755 23.373,313.136 24.346,312.705 24.610 C 312.274 24.874,310.212 26.114,308.122 27.365 C 306.032 28.617,304.138 29.751,303.914 29.886 C 299.753 32.394,298.280 33.270,298.090 33.350 C 297.964 33.403,297.748 33.542,297.610 33.659 C 297.184 34.021,282.509 42.737,282.326 42.737 C 282.231 42.737,282.117 42.824,282.073 42.930 C 282.029 43.036,280.714 43.873,279.151 44.791 C 277.588 45.708,276.021 46.633,275.669 46.847 C 272.285 48.901,268.105 51.381,268.026 51.381 C 267.971 51.381,267.796 51.495,267.637 51.635 C 267.477 51.774,265.888 52.758,264.106 53.821 C 262.323 54.884,259.214 56.742,257.196 57.949 C 255.179 59.156,253.234 60.306,252.875 60.504 C 252.515 60.702,252.167 60.925,252.101 60.999 C 252.035 61.073,250.738 61.861,249.220 62.751 C 247.701 63.640,246.297 64.471,246.098 64.598 C 243.632 66.173,240.192 68.127,240.044 68.035 C 239.941 67.971,239.856 52.637,239.856 33.959 L 239.856 0.000 231.932 0.000 L 224.008 0.000 224.069 47.959 M0.000 151.980 L 0.000 159.904 43.203 159.904 C 66.965 159.904,86.460 159.990,86.525 160.096 C 86.622 160.254,83.318 162.429,82.476 162.761 C 82.342 162.814,82.179 162.929,82.113 163.016 C 82.047 163.103,80.714 163.924,79.151 164.841 C 77.588 165.757,76.021 166.681,75.669 166.895 C 71.372 169.504,68.088 171.429,67.936 171.429 C 67.832 171.429,67.711 171.514,67.667 171.618 C 67.623 171.722,66.074 172.701,64.226 173.793 C 62.377 174.886,59.190 176.796,57.143 178.039 C 55.096 179.282,53.151 180.435,52.821 180.601 C 52.491 180.767,52.167 180.965,52.101 181.042 C 52.035 181.119,50.705 181.931,49.145 182.848 C 45.422 185.035,45.882 184.761,42.737 186.673 C 41.218 187.597,39.760 188.469,39.496 188.612 C 38.674 189.054,37.850 189.547,37.587 189.754 C 37.342 189.946,35.587 191.002,28.259 195.364 C 26.304 196.527,24.414 197.667,24.057 197.897 C 23.701 198.126,23.139 198.450,22.809 198.615 C 22.479 198.781,22.101 199.005,21.969 199.113 C 21.837 199.221,20.540 200.016,19.088 200.881 C 17.635 201.746,16.156 202.631,15.802 202.847 C 15.447 203.064,14.160 203.836,12.940 204.562 C 11.721 205.288,10.371 206.098,9.939 206.363 C 9.508 206.627,7.716 207.694,5.958 208.735 C 4.200 209.776,2.142 211.018,1.386 211.496 L 0.010 212.365 0.005 226.230 L 0.000 240.096 23.142 240.096 L 46.285 240.096 49.428 238.235 C 51.927 236.757,58.034 233.095,67.748 227.252 C 67.968 227.119,69.427 226.259,70.989 225.341 C 72.551 224.423,73.884 223.602,73.950 223.516 C 74.016 223.431,74.178 223.318,74.310 223.265 C 74.442 223.212,75.982 222.305,77.733 221.248 C 79.484 220.192,81.284 219.112,81.733 218.848 C 82.181 218.583,84.044 217.470,85.872 216.373 C 87.700 215.276,90.924 213.346,93.037 212.084 C 95.150 210.822,97.164 209.612,97.514 209.396 C 97.863 209.180,99.430 208.252,100.995 207.334 C 102.561 206.415,103.896 205.594,103.962 205.509 C 104.028 205.424,104.190 205.311,104.322 205.258 C 104.454 205.205,105.994 204.298,107.745 203.241 C 109.496 202.185,111.299 201.104,111.753 200.840 C 112.206 200.576,114.069 199.457,115.892 198.353 C 117.716 197.249,120.594 195.521,122.289 194.512 C 125.457 192.625,126.265 192.142,127.466 191.417 C 127.848 191.185,129.442 190.245,131.007 189.327 C 132.573 188.408,133.908 187.592,133.974 187.512 C 134.072 187.394,138.174 184.931,141.766 182.833 C 142.219 182.569,144.081 181.450,145.904 180.346 C 147.728 179.242,150.606 177.514,152.301 176.504 C 153.995 175.495,155.636 174.508,155.948 174.310 C 157.904 173.067,159.896 171.981,160.010 172.095 C 160.084 172.169,160.144 187.499,160.144 206.162 L 160.144 240.096 168.068 240.096 L 175.992 240.096 175.931 192.137 L 175.870 144.178 87.935 144.117 L 0.000 144.057 0.000 151.980 M224.170 144.218 C 224.082 144.306,224.010 165.914,224.010 192.237 L 224.010 240.096 231.933 240.096 L 239.856 240.096 239.856 206.137 C 239.856 187.459,239.937 172.129,240.036 172.070 C 240.135 172.011,241.450 172.707,242.959 173.616 C 244.467 174.526,245.782 175.270,245.880 175.270 C 245.978 175.270,246.094 175.355,246.138 175.458 C 246.182 175.562,247.497 176.399,249.059 177.319 C 250.621 178.239,252.080 179.100,252.300 179.233 C 252.521 179.365,255.996 181.453,260.024 183.872 C 264.052 186.291,267.509 188.372,267.707 188.496 C 268.255 188.839,275.358 193.101,278.825 195.167 C 280.517 196.174,282.083 197.109,282.307 197.245 C 282.530 197.380,284.421 198.514,286.509 199.766 C 288.597 201.017,291.946 203.029,293.952 204.236 C 295.958 205.443,298.929 207.226,300.554 208.197 C 302.179 209.169,303.763 210.126,304.074 210.324 C 304.384 210.522,306.279 211.657,308.285 212.845 C 310.290 214.034,312.281 215.222,312.709 215.486 C 313.138 215.750,314.757 216.723,316.308 217.647 C 317.859 218.571,319.385 219.490,319.698 219.688 C 320.012 219.886,321.542 220.797,323.099 221.712 C 324.656 222.627,326.363 223.661,326.891 224.010 C 327.419 224.358,329.125 225.392,330.682 226.307 C 332.239 227.222,333.769 228.133,334.082 228.331 C 334.395 228.529,336.254 229.643,338.214 230.806 C 344.722 234.668,347.296 236.217,347.539 236.418 C 347.671 236.528,348.049 236.753,348.379 236.919 C 348.709 237.085,349.270 237.408,349.626 237.638 C 349.982 237.867,351.049 238.514,351.999 239.076 L 353.725 240.096 376.863 240.096 L 400.000 240.096 399.992 226.230 L 399.985 212.365 399.452 211.984 C 399.159 211.774,397.839 210.973,396.519 210.205 C 395.198 209.436,393.577 208.461,392.917 208.040 C 392.257 207.618,388.660 205.447,384.925 203.216 C 381.189 200.985,377.776 198.944,377.340 198.679 C 376.596 198.229,371.885 195.417,370.097 194.358 C 368.738 193.552,362.846 189.996,359.544 187.988 C 357.827 186.944,356.261 186.006,356.062 185.902 C 355.726 185.727,349.057 181.737,347.319 180.672 C 346.888 180.408,345.303 179.456,343.796 178.556 C 342.289 177.657,339.382 175.915,337.335 174.686 C 335.288 173.457,332.425 171.741,330.972 170.874 C 329.520 170.007,328.223 169.209,328.091 169.101 C 327.959 168.993,327.581 168.771,327.251 168.607 C 326.921 168.444,326.489 168.198,326.291 168.061 C 325.909 167.797,319.589 163.999,315.677 161.683 C 314.395 160.925,313.402 160.214,313.470 160.104 C 313.538 159.994,333.035 159.904,356.797 159.904 L 400.000 159.904 400.000 151.981 L 400.000 144.058 312.165 144.058 C 263.856 144.058,224.258 144.130,224.170 144.218 " stroke="none" fill="#fcfcfc" fill-rule="evenodd"></path><path id="path3" d="M349.520 2.058 C 348.622 2.545,348.677 2.748,349.580 2.281 C 349.976 2.076,350.300 1.857,350.300 1.795 C 350.300 1.640,350.274 1.649,349.520 2.058 M347.362 3.316 C 346.737 3.671,346.224 4.042,346.222 4.139 C 346.220 4.237,346.759 3.985,347.419 3.579 C 348.079 3.172,348.619 2.795,348.619 2.741 C 348.619 2.601,348.626 2.598,347.362 3.316 M52.581 3.435 C 52.581 3.500,52.942 3.767,53.382 4.027 C 53.823 4.287,54.498 4.695,54.883 4.933 C 55.384 5.244,55.480 5.262,55.222 4.995 C 54.812 4.571,52.581 3.253,52.581 3.435 M55.702 5.396 C 55.702 5.459,56.053 5.681,56.483 5.891 L 57.263 6.271 56.663 5.782 C 56.085 5.311,55.702 5.157,55.702 5.396 M341.222 7.052 C 340.256 7.627,339.338 8.230,339.181 8.394 C 338.894 8.692,342.539 6.584,342.965 6.205 C 343.428 5.793,342.934 6.034,341.222 7.052 M59.784 7.781 C 59.784 7.829,60.054 8.045,60.384 8.261 C 60.714 8.478,60.984 8.561,60.984 8.447 C 60.984 8.334,60.714 8.117,60.384 7.967 C 60.054 7.816,59.784 7.733,59.784 7.781 M61.465 8.895 C 62.348 9.495,62.793 9.638,62.218 9.137 C 61.907 8.866,61.528 8.645,61.378 8.647 C 61.228 8.649,61.267 8.761,61.465 8.895 M333.733 11.546 C 332.032 12.564,330.555 13.606,331.453 13.155 C 332.081 12.839,335.894 10.480,335.894 10.407 C 335.894 10.260,335.803 10.308,333.733 11.546 M66.987 12.104 C 66.987 12.159,67.527 12.536,68.187 12.942 C 68.848 13.349,69.386 13.601,69.384 13.503 C 69.381 13.321,66.987 11.924,66.987 12.104 M69.868 13.937 C 70.701 14.503,71.175 14.667,70.588 14.187 C 70.258 13.917,69.880 13.695,69.748 13.694 C 69.616 13.694,69.670 13.803,69.868 13.937 M327.911 15.023 C 327.014 15.510,327.068 15.713,327.971 15.246 C 328.367 15.041,328.691 14.822,328.691 14.760 C 328.691 14.605,328.666 14.614,327.911 15.023 M325.750 16.332 C 325.123 16.725,324.610 17.101,324.610 17.165 C 324.610 17.230,325.150 16.950,325.810 16.544 C 326.471 16.138,327.011 15.760,327.011 15.706 C 327.011 15.548,326.953 15.576,325.750 16.332 M75.870 17.539 C 76.754 18.139,77.199 18.281,76.624 17.781 C 76.312 17.509,75.934 17.289,75.784 17.291 C 75.633 17.293,75.672 17.404,75.870 17.539 M323.409 17.789 C 323.011 18.115,322.970 18.196,323.289 18.031 C 324.072 17.627,324.507 17.294,324.250 17.296 C 324.118 17.297,323.739 17.519,323.409 17.789 M318.412 20.738 C 317.447 21.312,316.529 21.916,316.372 22.079 C 316.085 22.378,319.730 20.270,320.156 19.891 C 320.619 19.479,320.125 19.719,318.412 20.738 M83.053 21.774 C 83.976 22.467,85.630 23.391,85.234 22.993 C 85.036 22.793,84.334 22.339,83.673 21.984 C 83.013 21.629,82.734 21.534,83.053 21.774 M310.974 25.222 C 309.890 25.889,309.004 26.496,309.004 26.571 C 309.004 26.645,309.247 26.551,309.544 26.361 C 309.841 26.171,310.759 25.603,311.585 25.099 C 312.898 24.296,313.274 24.010,313.015 24.010 C 312.977 24.010,312.058 24.555,310.974 25.222 M89.796 25.788 C 89.796 25.836,90.066 26.052,90.396 26.268 C 90.726 26.485,90.996 26.569,90.996 26.455 C 90.996 26.341,90.726 26.124,90.396 25.974 C 90.066 25.824,89.796 25.740,89.796 25.788 M91.477 26.902 C 92.360 27.502,92.805 27.645,92.230 27.144 C 91.919 26.873,91.540 26.652,91.390 26.654 C 91.240 26.656,91.279 26.768,91.477 26.902 M399.220 28.469 C 398.322 28.956,398.377 29.158,399.280 28.691 C 399.676 28.487,400.000 28.268,400.000 28.205 C 400.000 28.051,399.974 28.059,399.220 28.469 M304.007 29.381 C 303.041 29.956,302.123 30.569,301.966 30.743 C 301.663 31.080,301.702 31.059,304.382 29.421 C 305.670 28.633,306.082 28.322,305.822 28.334 C 305.789 28.336,304.972 28.807,304.007 29.381 M396.279 30.252 C 395.882 30.514,395.666 30.727,395.798 30.725 C 396.039 30.722,397.344 29.786,397.119 29.779 C 397.053 29.777,396.675 29.990,396.279 30.252 M96.999 30.112 C 96.999 30.166,97.539 30.543,98.199 30.950 C 98.860 31.356,99.398 31.608,99.396 31.510 C 99.393 31.328,96.999 29.932,96.999 30.112 M4.562 30.803 C 4.562 30.928,7.064 32.554,8.103 33.104 C 9.194 33.682,8.601 33.176,7.143 32.284 C 6.318 31.780,5.399 31.212,5.102 31.022 C 4.805 30.832,4.562 30.734,4.562 30.803 M394.718 31.224 L 394.118 31.706 394.778 31.421 C 395.141 31.264,395.438 31.045,395.438 30.934 C 395.438 30.660,395.405 30.673,394.718 31.224 M99.880 31.944 C 100.713 32.510,101.187 32.674,100.600 32.194 C 100.270 31.924,99.892 31.703,99.760 31.702 C 99.628 31.701,99.682 31.810,99.880 31.944 M392.017 32.790 C 391.119 33.277,391.174 33.480,392.077 33.013 C 392.473 32.808,392.797 32.589,392.797 32.527 C 392.797 32.372,392.771 32.381,392.017 32.790 M296.210 34.058 C 295.579 34.430,294.930 34.880,294.770 35.058 C 294.609 35.236,294.793 35.186,295.177 34.947 C 295.562 34.707,296.237 34.299,296.678 34.039 C 297.119 33.779,297.479 33.523,297.479 33.470 C 297.479 33.318,297.425 33.343,296.210 34.058 M11.765 35.274 C 12.343 35.745,12.725 35.899,12.725 35.660 C 12.725 35.598,12.374 35.375,11.945 35.166 L 11.164 34.785 11.765 35.274 M387.815 35.322 C 386.997 35.846,386.732 36.198,387.455 35.800 C 388.006 35.498,388.869 34.830,388.715 34.826 C 388.649 34.824,388.244 35.047,387.815 35.322 M105.882 35.546 C 106.715 36.111,107.189 36.276,106.603 35.796 C 106.273 35.526,105.894 35.304,105.762 35.303 C 105.630 35.302,105.684 35.411,105.882 35.546 M293.397 35.794 L 292.797 36.283 293.577 35.903 C 294.007 35.693,294.358 35.471,294.358 35.408 C 294.358 35.169,293.975 35.323,293.397 35.794 M13.412 36.241 C 13.724 36.513,14.102 36.733,14.252 36.731 C 14.539 36.727,14.140 36.409,13.325 35.993 C 12.948 35.800,12.967 35.853,13.412 36.241 M383.613 37.832 C 382.716 38.319,382.770 38.522,383.673 38.055 C 384.070 37.850,384.394 37.631,384.394 37.569 C 384.394 37.414,384.368 37.423,383.613 37.832 M109.724 37.803 C 109.724 37.869,110.048 38.090,110.444 38.295 C 110.840 38.500,111.164 38.614,111.164 38.548 C 111.164 38.482,110.840 38.260,110.444 38.055 C 110.048 37.850,109.724 37.737,109.724 37.803 M288.400 38.745 C 287.435 39.320,286.517 39.923,286.360 40.086 C 286.047 40.412,289.775 38.274,290.144 37.916 C 290.570 37.503,290.159 37.698,288.400 38.745 M381.873 38.896 C 381.477 39.158,381.261 39.371,381.393 39.369 C 381.633 39.365,382.939 38.429,382.713 38.422 C 382.647 38.420,382.269 38.633,381.873 38.896 M113.065 39.785 C 114.047 40.515,115.729 41.437,115.006 40.848 C 114.676 40.580,113.974 40.134,113.445 39.857 C 112.733 39.484,112.635 39.465,113.065 39.785 M379.912 40.066 C 378.448 40.988,378.319 41.236,379.712 40.449 C 381.136 39.644,381.140 39.641,381.012 39.526 C 380.957 39.476,380.462 39.719,379.912 40.066 M20.108 40.255 C 20.726 40.761,23.049 42.095,23.049 41.945 C 23.049 41.849,20.302 40.131,19.808 39.918 C 19.676 39.861,19.811 40.013,20.108 40.255 M376.411 42.154 C 375.513 42.641,375.568 42.844,376.471 42.377 C 376.867 42.172,377.191 41.953,377.191 41.891 C 377.191 41.736,377.165 41.745,376.411 42.154 M280.962 43.230 C 279.878 43.897,278.992 44.503,278.992 44.578 C 278.992 44.652,279.235 44.558,279.532 44.368 C 279.829 44.179,280.747 43.611,281.573 43.106 C 282.886 42.303,283.262 42.017,283.003 42.017 C 282.965 42.017,282.046 42.563,280.962 43.230 M373.409 43.965 C 372.980 44.240,372.629 44.511,372.629 44.568 C 372.629 44.738,374.028 43.959,374.189 43.699 C 374.397 43.362,374.299 43.395,373.409 43.965 M119.808 43.795 C 119.808 43.843,120.078 44.059,120.408 44.276 C 120.738 44.492,121.008 44.576,121.008 44.462 C 121.008 44.348,120.738 44.132,120.408 43.981 C 120.078 43.831,119.808 43.747,119.808 43.795 M27.611 44.714 C 27.809 44.914,28.511 45.368,29.172 45.723 C 30.496 46.435,29.787 45.834,28.232 44.925 C 27.692 44.610,27.413 44.515,27.611 44.714 M121.489 44.910 C 122.372 45.510,122.817 45.652,122.242 45.152 C 121.931 44.880,121.552 44.660,121.402 44.662 C 121.252 44.664,121.291 44.775,121.489 44.910 M124.130 46.446 C 124.130 46.512,124.454 46.734,124.850 46.939 C 125.246 47.144,125.570 47.257,125.570 47.191 C 125.570 47.125,125.246 46.904,124.850 46.699 C 124.454 46.494,124.130 46.380,124.130 46.446 M274.602 47.023 C 273.970 47.395,273.322 47.845,273.161 48.023 C 273.001 48.202,273.184 48.151,273.569 47.912 C 273.953 47.672,274.629 47.264,275.069 47.004 C 275.510 46.744,275.870 46.488,275.870 46.435 C 275.870 46.283,275.816 46.308,274.602 47.023 M366.267 48.259 C 365.870 48.522,365.654 48.735,365.786 48.733 C 366.027 48.729,367.332 47.793,367.107 47.786 C 367.041 47.784,366.663 47.997,366.267 48.259 M127.011 48.119 C 127.011 48.173,127.551 48.551,128.211 48.957 C 128.872 49.363,129.410 49.615,129.408 49.518 C 129.405 49.336,127.011 47.939,127.011 48.119 M34.574 48.863 C 34.574 48.982,35.674 49.692,37.515 50.763 C 38.142 51.128,38.655 51.373,38.655 51.307 C 38.655 51.242,38.250 50.946,37.755 50.650 C 34.972 48.986,34.574 48.762,34.574 48.863 M265.959 52.239 C 265.204 52.712,264.586 53.150,264.586 53.213 C 264.586 53.335,266.031 52.499,267.007 51.813 C 268.047 51.083,267.366 51.359,265.959 52.239 M41.777 53.280 C 42.107 53.550,42.485 53.772,42.617 53.772 C 42.874 53.774,42.440 53.442,41.657 53.037 C 41.338 52.872,41.378 52.954,41.777 53.280 M357.803 53.329 C 357.374 53.604,357.023 53.875,357.023 53.931 C 357.023 54.102,358.422 53.323,358.582 53.063 C 358.791 52.726,358.693 52.759,357.803 53.329 M135.894 53.553 C 136.727 54.118,137.201 54.283,136.615 53.803 C 136.285 53.533,135.906 53.311,135.774 53.310 C 135.642 53.309,135.696 53.419,135.894 53.553 M263.385 53.801 L 262.785 54.291 263.565 53.910 C 263.995 53.700,264.346 53.478,264.346 53.415 C 264.346 53.176,263.963 53.330,263.385 53.801 M43.082 53.996 C 43.171 54.141,43.467 54.379,43.740 54.524 C 44.095 54.715,44.190 54.715,44.073 54.527 C 43.984 54.383,43.688 54.145,43.415 53.999 C 43.060 53.809,42.965 53.808,43.082 53.996 M139.736 55.810 C 139.736 55.876,140.060 56.098,140.456 56.303 C 140.852 56.507,141.176 56.621,141.176 56.555 C 141.176 56.489,140.852 56.267,140.456 56.062 C 140.060 55.858,139.736 55.744,139.736 55.810 M258.995 56.387 C 258.364 56.759,257.716 57.204,257.555 57.377 C 257.256 57.699,258.764 56.866,259.804 56.135 C 260.705 55.502,260.266 55.638,258.995 56.387 M351.381 57.175 C 349.746 58.186,349.420 58.579,350.900 57.752 C 351.987 57.145,352.974 56.416,352.693 56.427 C 352.631 56.430,352.041 56.766,351.381 57.175 M142.977 57.749 C 143.706 58.340,144.390 58.688,144.191 58.366 C 144.101 58.219,143.683 57.933,143.262 57.730 C 142.552 57.386,142.531 57.388,142.977 57.749 M50.120 58.262 C 50.738 58.768,53.061 60.102,53.061 59.952 C 53.061 59.856,50.314 58.138,49.820 57.925 C 49.688 57.868,49.823 58.020,50.120 58.262 M346.399 60.161 C 345.501 60.648,345.556 60.851,346.459 60.384 C 346.855 60.179,347.179 59.960,347.179 59.898 C 347.179 59.743,347.153 59.752,346.399 60.161 M146.939 60.132 C 146.939 60.198,147.263 60.419,147.659 60.624 C 148.055 60.829,148.379 60.943,148.379 60.877 C 148.379 60.811,148.055 60.589,147.659 60.384 C 147.263 60.179,146.939 60.066,146.939 60.132 M250.950 61.237 C 249.866 61.904,248.980 62.511,248.980 62.585 C 248.980 62.659,249.223 62.565,249.520 62.375 C 249.817 62.186,250.735 61.618,251.561 61.113 C 252.874 60.310,253.250 60.024,252.991 60.024 C 252.953 60.024,252.034 60.570,250.950 61.237 M148.619 61.064 C 148.619 61.130,149.187 61.528,149.880 61.948 C 150.573 62.369,150.978 62.557,150.780 62.366 C 150.332 61.934,148.619 60.902,148.619 61.064 M56.149 61.931 C 56.461 62.203,56.839 62.423,56.989 62.421 C 57.276 62.417,56.877 62.100,56.062 61.683 C 55.685 61.490,55.704 61.543,56.149 61.931 M342.892 62.296 C 341.201 63.374,340.988 63.644,342.497 62.797 C 343.582 62.189,344.573 61.455,344.289 61.471 C 344.228 61.474,343.599 61.845,342.892 62.296 M57.623 62.734 C 58.053 63.153,60.490 64.538,60.144 64.167 C 60.012 64.026,59.310 63.567,58.583 63.147 C 57.857 62.727,57.425 62.541,57.623 62.734 M151.501 62.917 C 152.384 63.517,152.829 63.660,152.254 63.159 C 151.943 62.887,151.564 62.667,151.414 62.669 C 151.264 62.671,151.303 62.782,151.501 62.917 M154.142 64.453 C 154.142 64.519,154.466 64.741,154.862 64.946 C 155.258 65.151,155.582 65.264,155.582 65.198 C 155.582 65.132,155.258 64.911,154.862 64.706 C 154.466 64.501,154.142 64.387,154.142 64.453 M337.995 65.203 C 337.632 65.400,337.335 65.612,337.335 65.674 C 337.335 65.906,337.714 65.761,338.295 65.306 C 339.009 64.748,338.902 64.711,337.995 65.203 M243.424 65.800 C 242.979 66.188,242.960 66.241,243.337 66.048 C 244.152 65.631,244.551 65.314,244.264 65.310 C 244.114 65.308,243.736 65.528,243.424 65.800 M63.385 66.245 C 63.715 66.515,64.094 66.737,64.226 66.738 C 64.483 66.739,64.048 66.407,63.265 66.002 C 62.946 65.837,62.987 65.919,63.385 66.245 M336.255 66.267 C 335.858 66.529,335.657 66.744,335.808 66.745 C 336.070 66.747,337.341 65.809,337.095 65.796 C 337.029 65.792,336.651 66.004,336.255 66.267 M157.383 66.391 C 157.647 66.606,158.079 66.888,158.343 67.018 L 158.824 67.253 158.343 66.862 C 158.079 66.647,157.647 66.365,157.383 66.236 L 156.903 66.000 157.383 66.391 M64.826 67.046 C 65.274 67.478,66.987 68.509,66.987 68.347 C 66.987 68.282,66.420 67.884,65.726 67.464 C 65.033 67.043,64.628 66.855,64.826 67.046 M67.227 68.535 C 67.227 68.601,67.551 68.823,67.947 69.028 C 68.343 69.232,68.667 69.346,68.667 69.280 C 68.667 69.214,68.343 68.992,67.947 68.788 C 67.551 68.583,67.227 68.469,67.227 68.535 M329.172 70.499 C 327.352 71.609,326.385 72.346,327.491 71.781 C 328.946 71.037,331.450 69.349,331.032 69.394 C 330.999 69.398,330.162 69.895,329.172 70.499 M71.789 71.287 C 72.119 71.557,72.497 71.779,72.629 71.780 C 72.886 71.781,72.452 71.449,71.669 71.044 C 71.350 70.879,71.390 70.961,71.789 71.287 M74.430 72.857 C 74.430 72.923,74.754 73.144,75.150 73.349 C 75.546 73.554,75.870 73.668,75.870 73.602 C 75.870 73.536,75.546 73.314,75.150 73.109 C 74.754 72.904,74.430 72.791,74.430 72.857 M323.529 73.950 C 323.133 74.212,322.917 74.425,323.049 74.423 C 323.290 74.419,324.595 73.483,324.370 73.476 C 324.304 73.474,323.926 73.687,323.529 73.950 M321.369 75.182 C 319.734 76.193,319.408 76.586,320.888 75.759 C 321.975 75.152,322.962 74.423,322.681 74.434 C 322.619 74.437,322.029 74.773,321.369 75.182 M78.992 75.591 C 78.992 75.696,79.343 75.957,79.772 76.172 C 80.201 76.386,81.011 76.844,81.573 77.190 C 82.134 77.536,82.593 77.766,82.593 77.703 C 82.593 77.639,81.783 77.095,80.792 76.494 C 79.802 75.892,78.992 75.486,78.992 75.591 M82.833 77.899 C 82.833 77.965,83.157 78.186,83.553 78.391 C 83.950 78.596,84.274 78.710,84.274 78.644 C 84.274 78.578,83.950 78.356,83.553 78.151 C 83.157 77.946,82.833 77.833,82.833 77.899 M316.387 78.169 C 315.489 78.655,315.544 78.858,316.447 78.391 C 316.843 78.186,317.167 77.968,317.167 77.905 C 317.167 77.750,317.141 77.759,316.387 78.169 M314.586 79.259 C 314.157 79.534,313.806 79.805,313.806 79.862 C 313.806 80.032,315.204 79.253,315.365 78.993 C 315.574 78.656,315.476 78.689,314.586 79.259 M313.585 160.222 C 313.993 160.542,315.486 161.360,315.486 161.264 C 315.486 161.108,313.928 160.144,313.677 160.144 C 313.572 160.144,313.530 160.179,313.585 160.222 M80.962 163.278 C 79.878 163.945,78.992 164.551,78.992 164.626 C 78.992 164.700,79.235 164.606,79.532 164.416 C 79.829 164.227,80.747 163.659,81.573 163.154 C 82.886 162.351,83.262 162.065,83.003 162.065 C 82.965 162.065,82.046 162.611,80.962 163.278 M318.607 163.125 C 318.607 163.179,319.148 163.557,319.808 163.963 C 320.468 164.369,321.007 164.621,321.005 164.524 C 321.001 164.342,318.607 162.945,318.607 163.125 M321.489 164.958 C 322.372 165.558,322.817 165.700,322.242 165.200 C 321.931 164.928,321.552 164.708,321.402 164.710 C 321.252 164.712,321.291 164.823,321.489 164.958 M74.602 167.071 C 73.970 167.443,73.322 167.893,73.161 168.071 C 73.001 168.250,73.184 168.199,73.569 167.960 C 73.953 167.720,74.629 167.312,75.069 167.052 C 75.510 166.792,75.870 166.536,75.870 166.483 C 75.870 166.331,75.816 166.356,74.602 167.071 M324.130 166.494 C 324.130 166.560,324.454 166.782,324.850 166.987 C 325.246 167.192,325.570 167.305,325.570 167.239 C 325.570 167.173,325.246 166.952,324.850 166.747 C 324.454 166.542,324.130 166.428,324.130 166.494 M327.011 168.167 C 327.011 168.221,327.551 168.599,328.211 169.005 C 328.872 169.411,329.410 169.663,329.408 169.566 C 329.405 169.384,327.011 167.987,327.011 168.167 M65.959 172.287 C 65.204 172.760,64.586 173.198,64.586 173.261 C 64.586 173.383,66.031 172.547,67.007 171.861 C 68.047 171.131,67.366 171.407,65.959 172.287 M157.803 173.377 C 157.374 173.652,157.023 173.923,157.023 173.979 C 157.023 174.150,158.422 173.371,158.582 173.111 C 158.791 172.774,158.693 172.807,157.803 173.377 M241.777 173.328 C 242.107 173.598,242.485 173.820,242.617 173.821 C 242.874 173.822,242.440 173.490,241.657 173.085 C 241.338 172.920,241.378 173.002,241.777 173.328 M63.385 173.849 L 62.785 174.339 63.565 173.958 C 63.995 173.748,64.346 173.526,64.346 173.463 C 64.346 173.224,63.963 173.378,63.385 173.849 M335.894 173.601 C 336.727 174.166,337.201 174.331,336.615 173.851 C 336.285 173.581,335.906 173.359,335.774 173.358 C 335.642 173.357,335.696 173.467,335.894 173.601 M243.082 174.044 C 243.171 174.189,243.467 174.427,243.740 174.572 C 244.095 174.763,244.190 174.763,244.073 174.575 C 243.984 174.431,243.688 174.193,243.415 174.047 C 243.060 173.857,242.965 173.856,243.082 174.044 M58.995 176.435 C 58.364 176.807,57.716 177.253,57.555 177.425 C 57.256 177.747,58.764 176.914,59.804 176.183 C 60.705 175.550,60.266 175.686,58.995 176.435 M339.736 175.858 C 339.736 175.924,340.060 176.146,340.456 176.351 C 340.852 176.555,341.176 176.669,341.176 176.603 C 341.176 176.537,340.852 176.315,340.456 176.110 C 340.060 175.906,339.736 175.792,339.736 175.858 M151.381 177.223 C 149.746 178.234,149.420 178.627,150.900 177.800 C 151.987 177.193,152.974 176.464,152.693 176.475 C 152.631 176.478,152.041 176.814,151.381 177.223 M342.977 177.797 C 343.706 178.388,344.390 178.736,344.191 178.414 C 344.101 178.267,343.683 177.981,343.262 177.778 C 342.552 177.434,342.531 177.436,342.977 177.797 M250.120 178.310 C 250.738 178.816,253.061 180.150,253.061 180.000 C 253.061 179.904,250.314 178.186,249.820 177.973 C 249.688 177.916,249.823 178.068,250.120 178.310 M146.399 180.209 C 145.501 180.696,145.556 180.899,146.459 180.432 C 146.855 180.227,147.179 180.008,147.179 179.946 C 147.179 179.791,147.153 179.800,146.399 180.209 M50.950 181.285 C 49.866 181.952,48.980 182.559,48.980 182.633 C 48.980 182.707,49.223 182.613,49.520 182.423 C 49.817 182.234,50.735 181.666,51.561 181.161 C 52.874 180.358,53.250 180.072,52.991 180.072 C 52.953 180.072,52.034 180.618,50.950 181.285 M346.939 180.180 C 346.939 180.246,347.263 180.467,347.659 180.672 C 348.055 180.877,348.379 180.991,348.379 180.925 C 348.379 180.859,348.055 180.637,347.659 180.432 C 347.263 180.227,346.939 180.114,346.939 180.180 M348.619 181.112 C 348.619 181.178,349.187 181.576,349.880 181.996 C 350.573 182.417,350.978 182.605,350.780 182.414 C 350.332 181.982,348.619 180.950,348.619 181.112 M142.892 182.344 C 141.201 183.422,140.988 183.692,142.497 182.845 C 143.582 182.237,144.573 181.503,144.289 181.519 C 144.228 181.522,143.599 181.893,142.892 182.344 M256.149 181.979 C 256.461 182.251,256.839 182.471,256.989 182.469 C 257.276 182.465,256.877 182.148,256.062 181.731 C 255.685 181.538,255.704 181.591,256.149 181.979 M257.623 182.782 C 258.053 183.201,260.490 184.586,260.144 184.215 C 260.012 184.074,259.310 183.615,258.583 183.195 C 257.857 182.775,257.425 182.589,257.623 182.782 M351.501 182.965 C 352.384 183.565,352.829 183.708,352.254 183.207 C 351.943 182.935,351.564 182.715,351.414 182.717 C 351.264 182.719,351.303 182.830,351.501 182.965 M354.142 184.501 C 354.142 184.568,354.466 184.789,354.862 184.994 C 355.258 185.199,355.582 185.312,355.582 185.246 C 355.582 185.180,355.258 184.959,354.862 184.754 C 354.466 184.549,354.142 184.435,354.142 184.501 M137.995 185.251 C 137.632 185.448,137.335 185.660,137.335 185.722 C 137.335 185.954,137.714 185.809,138.295 185.354 C 139.009 184.796,138.902 184.759,137.995 185.251 M43.424 185.848 C 42.979 186.236,42.960 186.289,43.337 186.096 C 44.152 185.679,44.551 185.362,44.264 185.358 C 44.114 185.356,43.736 185.576,43.424 185.848 M136.255 186.315 C 135.858 186.577,135.657 186.792,135.808 186.793 C 136.070 186.795,137.341 185.857,137.095 185.844 C 137.029 185.840,136.651 186.052,136.255 186.315 M263.385 186.293 C 263.715 186.563,264.094 186.785,264.226 186.786 C 264.483 186.787,264.048 186.455,263.265 186.050 C 262.946 185.885,262.987 185.967,263.385 186.293 M357.383 186.439 C 357.647 186.654,358.079 186.936,358.343 187.066 L 358.824 187.301 358.343 186.910 C 358.079 186.695,357.647 186.413,357.383 186.284 L 356.903 186.048 357.383 186.439 M264.826 187.094 C 265.274 187.526,266.987 188.557,266.987 188.396 C 266.987 188.330,266.420 187.932,265.726 187.512 C 265.033 187.091,264.628 186.903,264.826 187.094 M39.556 188.133 C 38.658 188.619,38.713 188.822,39.616 188.355 C 40.012 188.150,40.336 187.932,40.336 187.869 C 40.336 187.714,40.310 187.723,39.556 188.133 M267.227 188.583 C 267.227 188.649,267.551 188.871,267.947 189.076 C 268.343 189.280,268.667 189.394,268.667 189.328 C 268.667 189.262,268.343 189.040,267.947 188.836 C 267.551 188.631,267.227 188.517,267.227 188.583 M362.185 189.313 C 362.721 189.759,364.242 190.581,363.866 190.222 C 363.733 190.096,363.193 189.750,362.665 189.454 C 362.137 189.157,361.921 189.094,362.185 189.313 M35.947 190.295 C 35.192 190.767,34.574 191.205,34.574 191.269 C 34.574 191.390,36.019 190.555,36.995 189.869 C 38.034 189.138,37.354 189.415,35.947 190.295 M129.172 190.547 C 127.352 191.657,126.385 192.394,127.491 191.829 C 128.946 191.085,131.450 189.397,131.032 189.442 C 130.999 189.446,130.162 189.943,129.172 190.547 M271.789 191.335 C 272.119 191.605,272.497 191.827,272.629 191.828 C 272.886 191.829,272.452 191.497,271.669 191.092 C 271.350 190.927,271.390 191.009,271.789 191.335 M33.553 191.734 C 32.656 192.221,32.710 192.424,33.613 191.957 C 34.010 191.752,34.334 191.533,34.334 191.470 C 34.334 191.316,34.308 191.325,33.553 191.734 M365.906 191.608 C 366.739 192.174,367.213 192.338,366.627 191.858 C 366.297 191.588,365.918 191.366,365.786 191.366 C 365.654 191.365,365.708 191.474,365.906 191.608 M274.430 192.905 C 274.430 192.971,274.754 193.192,275.150 193.397 C 275.546 193.602,275.870 193.716,275.870 193.650 C 275.870 193.584,275.546 193.362,275.150 193.157 C 274.754 192.952,274.430 192.839,274.430 192.905 M123.529 193.998 C 123.133 194.260,122.917 194.473,123.049 194.471 C 123.290 194.467,124.595 193.531,124.370 193.524 C 124.304 193.522,123.926 193.735,123.529 193.998 M29.592 194.051 C 29.295 194.194,29.052 194.405,29.052 194.520 C 29.052 194.635,29.322 194.552,29.652 194.336 C 30.532 193.759,30.502 193.612,29.592 194.051 M369.748 193.865 C 369.748 193.931,370.072 194.153,370.468 194.358 C 370.864 194.563,371.188 194.676,371.188 194.610 C 371.188 194.544,370.864 194.323,370.468 194.118 C 370.072 193.913,369.748 193.799,369.748 193.865 M121.369 195.230 C 119.734 196.241,119.408 196.634,120.888 195.807 C 121.975 195.200,122.962 194.471,122.681 194.482 C 122.619 194.485,122.029 194.821,121.369 195.230 M27.818 195.212 C 27.372 195.600,27.354 195.653,27.731 195.460 C 28.546 195.043,28.945 194.725,28.658 194.722 C 28.508 194.720,28.129 194.940,27.818 195.212 M371.429 194.798 C 371.429 194.863,371.996 195.261,372.689 195.682 C 373.382 196.102,373.788 196.290,373.589 196.099 C 373.142 195.668,371.429 194.636,371.429 194.798 M278.992 195.639 C 278.992 195.744,279.343 196.005,279.772 196.220 C 280.201 196.434,281.011 196.892,281.573 197.238 C 282.134 197.584,282.593 197.814,282.593 197.751 C 282.593 197.687,281.783 197.143,280.792 196.542 C 279.802 195.940,278.992 195.534,278.992 195.639 M116.387 198.217 C 115.489 198.704,115.544 198.906,116.447 198.439 C 116.843 198.235,117.167 198.016,117.167 197.953 C 117.167 197.799,117.141 197.807,116.387 198.217 M282.833 197.947 C 282.833 198.013,283.157 198.235,283.553 198.439 C 283.950 198.644,284.274 198.758,284.274 198.692 C 284.274 198.626,283.950 198.404,283.553 198.199 C 283.157 197.994,282.833 197.881,282.833 197.947 M21.128 199.181 C 20.138 199.782,19.220 200.394,19.088 200.541 C 18.956 200.688,19.118 200.646,19.448 200.448 C 22.505 198.614,23.049 198.271,23.049 198.182 C 23.049 198.019,23.023 198.033,21.128 199.181 M376.951 198.187 C 376.951 198.253,377.275 198.475,377.671 198.679 C 378.067 198.884,378.391 198.998,378.391 198.932 C 378.391 198.866,378.067 198.644,377.671 198.439 C 377.275 198.235,376.951 198.121,376.951 198.187 M113.479 199.996 C 111.300 201.356,110.728 201.843,112.485 200.843 C 114.287 199.818,115.486 199.048,115.486 198.917 C 115.486 198.742,115.508 198.730,113.479 199.996 M378.631 199.119 C 378.631 199.185,379.199 199.583,379.892 200.003 C 380.585 200.424,380.990 200.612,380.792 200.421 C 380.344 199.989,378.631 198.958,378.631 199.119 M285.954 199.809 C 286.152 200.004,286.855 200.455,287.515 200.811 C 288.836 201.522,288.136 200.939,286.575 200.027 C 286.036 199.712,285.756 199.614,285.954 199.809 M381.513 200.972 C 382.345 201.537,382.820 201.702,382.233 201.222 C 381.903 200.952,381.525 200.730,381.393 200.729 C 381.261 200.728,381.315 200.838,381.513 200.972 M288.956 201.609 C 289.088 201.745,289.736 202.159,290.396 202.529 C 291.056 202.898,291.489 203.089,291.357 202.953 C 291.224 202.816,290.576 202.403,289.916 202.033 C 289.256 201.664,288.824 201.473,288.956 201.609 M384.274 202.570 C 384.406 202.706,385.054 203.120,385.714 203.489 C 386.375 203.858,386.807 204.049,386.675 203.913 C 386.543 203.777,385.894 203.363,385.234 202.994 C 384.574 202.624,384.142 202.433,384.274 202.570 M107.983 203.259 C 107.620 203.456,107.323 203.667,107.323 203.729 C 107.323 203.961,107.702 203.816,108.283 203.361 C 108.997 202.803,108.890 202.767,107.983 203.259 M13.412 203.855 C 12.967 204.243,12.948 204.296,13.325 204.103 C 14.140 203.687,14.539 203.369,14.252 203.365 C 14.102 203.363,13.724 203.584,13.412 203.855 M106.242 204.322 C 105.846 204.584,105.645 204.799,105.796 204.800 C 106.058 204.802,107.329 203.864,107.083 203.851 C 107.017 203.848,106.639 204.059,106.242 204.322 M293.397 204.300 C 293.727 204.570,294.106 204.792,294.238 204.793 C 294.495 204.795,294.060 204.462,293.277 204.057 C 292.958 203.893,292.999 203.974,293.397 204.300 M294.598 204.998 C 294.598 205.112,294.868 205.328,295.198 205.479 C 295.528 205.629,295.798 205.713,295.798 205.665 C 295.798 205.617,295.528 205.400,295.198 205.184 C 294.868 204.968,294.598 204.884,294.598 204.998 M9.544 206.140 C 8.646 206.627,8.701 206.829,9.604 206.363 C 10.000 206.158,10.324 205.939,10.324 205.876 C 10.324 205.722,10.298 205.730,9.544 206.140 M297.239 206.590 C 297.239 206.656,297.563 206.878,297.959 207.083 C 298.355 207.288,298.679 207.401,298.679 207.335 C 298.679 207.269,298.355 207.048,297.959 206.843 C 297.563 206.638,297.239 206.524,297.239 206.590 M391.477 206.891 C 391.609 207.028,392.257 207.441,392.917 207.811 C 393.577 208.180,394.010 208.371,393.878 208.235 C 393.745 208.098,393.097 207.685,392.437 207.315 C 391.777 206.946,391.345 206.755,391.477 206.891 M6.783 207.736 C 6.486 207.879,6.242 208.091,6.242 208.205 C 6.242 208.320,6.513 208.237,6.843 208.021 C 7.723 207.444,7.692 207.297,6.783 207.736 M99.086 208.622 C 97.164 209.821,96.412 210.390,97.479 209.839 C 98.972 209.068,101.423 207.413,101.020 207.448 C 100.987 207.451,100.117 207.980,99.086 208.622 M5.042 208.905 C 4.643 209.231,4.603 209.313,4.922 209.148 C 5.705 208.743,6.139 208.411,5.882 208.412 C 5.750 208.413,5.372 208.635,5.042 208.905 M394.342 208.618 C 394.431 208.763,394.728 209.000,395.000 209.146 C 395.356 209.336,395.450 209.337,395.334 209.149 C 395.244 209.004,394.948 208.767,394.676 208.621 C 394.320 208.431,394.226 208.430,394.342 208.618 M301.780 209.293 C 302.099 209.530,302.801 209.972,303.341 210.275 C 303.880 210.578,304.061 210.632,303.742 210.395 C 303.423 210.158,302.721 209.716,302.181 209.413 C 301.642 209.110,301.461 209.056,301.780 209.293 M395.918 209.616 C 396.751 210.181,397.225 210.345,396.639 209.865 C 396.309 209.595,395.930 209.374,395.798 209.373 C 395.666 209.372,395.720 209.481,395.918 209.616 M91.357 213.237 C 89.722 214.249,89.396 214.641,90.876 213.814 C 91.963 213.208,92.950 212.478,92.668 212.490 C 92.607 212.492,92.017 212.828,91.357 213.237 M307.803 212.944 C 308.133 213.214,308.511 213.435,308.643 213.436 C 308.900 213.438,308.466 213.106,307.683 212.701 C 307.364 212.536,307.404 212.618,307.803 212.944 M309.007 213.628 C 309.011 213.810,311.405 215.206,311.405 215.027 C 311.405 214.972,310.864 214.595,310.204 214.188 C 309.544 213.782,309.005 213.530,309.007 213.628 M312.845 215.954 C 312.845 216.020,313.169 216.242,313.565 216.447 C 313.962 216.651,314.286 216.765,314.286 216.699 C 314.286 216.633,313.962 216.411,313.565 216.206 C 313.169 216.002,312.845 215.888,312.845 215.954 M83.488 217.992 C 81.350 219.306,80.685 219.868,82.473 218.850 C 84.275 217.825,85.474 217.055,85.474 216.924 C 85.474 216.764,85.576 216.710,83.488 217.992 M315.966 217.816 C 316.164 218.011,316.867 218.462,317.527 218.818 C 318.848 219.530,318.148 218.946,316.587 218.034 C 316.048 217.719,315.768 217.621,315.966 217.816 M77.971 221.266 C 77.608 221.463,77.311 221.675,77.311 221.736 C 77.311 221.968,77.690 221.823,78.271 221.369 C 78.985 220.810,78.878 220.774,77.971 221.266 M76.230 222.329 C 75.834 222.591,75.633 222.807,75.784 222.808 C 76.046 222.809,77.317 221.871,77.071 221.858 C 77.005 221.855,76.627 222.067,76.230 222.329 M323.409 222.307 C 323.739 222.578,324.118 222.799,324.250 222.800 C 324.507 222.802,324.072 222.469,323.289 222.065 C 322.970 221.900,323.011 221.981,323.409 222.307 M324.610 223.005 C 324.610 223.119,324.880 223.335,325.210 223.486 C 325.540 223.636,325.810 223.720,325.810 223.672 C 325.810 223.624,325.540 223.408,325.210 223.191 C 324.880 222.975,324.610 222.891,324.610 223.005 M327.251 224.598 C 327.251 224.664,327.575 224.885,327.971 225.090 C 328.367 225.295,328.691 225.408,328.691 225.342 C 328.691 225.276,328.367 225.055,327.971 224.850 C 327.575 224.645,327.251 224.531,327.251 224.598 M69.028 226.682 C 68.367 227.091,67.719 227.537,67.587 227.673 C 67.321 227.946,68.976 227.005,69.888 226.363 C 70.847 225.689,70.311 225.888,69.028 226.682 M331.693 227.255 C 331.957 227.470,332.389 227.752,332.653 227.882 L 333.133 228.118 332.653 227.727 C 332.389 227.512,331.957 227.230,331.693 227.100 L 331.212 226.864 331.693 227.255 M63.505 230.012 C 63.109 230.274,62.908 230.490,63.059 230.491 C 63.321 230.492,64.592 229.555,64.346 229.541 C 64.280 229.538,63.902 229.750,63.505 230.012 M61.580 231.126 C 60.244 232.012,59.952 232.361,61.104 231.694 C 62.034 231.157,62.889 230.492,62.652 230.492 C 62.589 230.492,62.106 230.777,61.580 231.126 M337.815 230.951 C 338.145 231.221,338.523 231.443,338.655 231.444 C 338.912 231.445,338.478 231.113,337.695 230.708 C 337.376 230.543,337.416 230.625,337.815 230.951 M339.016 231.649 C 339.016 231.763,339.286 231.979,339.616 232.129 C 339.946 232.280,340.216 232.363,340.216 232.315 C 340.216 232.267,339.946 232.051,339.616 231.835 C 339.286 231.618,339.016 231.535,339.016 231.649 M56.303 234.334 C 55.906 234.596,55.690 234.809,55.822 234.807 C 56.063 234.803,57.368 233.868,57.143 233.860 C 57.077 233.858,56.699 234.071,56.303 234.334 M342.857 233.961 C 342.857 234.027,343.181 234.249,343.577 234.454 C 343.974 234.659,344.298 234.772,344.298 234.706 C 344.298 234.640,343.974 234.419,343.577 234.214 C 343.181 234.009,342.857 233.895,342.857 233.961 M345.978 235.823 C 346.176 236.019,346.879 236.469,347.539 236.825 C 348.860 237.537,348.160 236.953,346.599 236.042 C 346.060 235.726,345.780 235.628,345.978 235.823 M52.641 236.520 C 51.948 236.924,51.381 237.310,51.381 237.378 C 51.381 237.511,53.516 236.324,53.890 235.982 C 54.296 235.611,53.927 235.770,52.641 236.520 M47.899 239.376 C 47.503 239.638,47.287 239.851,47.419 239.849 C 47.660 239.845,48.965 238.910,48.739 238.902 C 48.673 238.900,48.295 239.113,47.899 239.376 " stroke="none" fill="#445c9c" fill-rule="evenodd"></path><path id="path4" d="M159.963 33.928 C 159.919 59.590,159.836 67.933,159.627 67.804 C 159.448 67.694,159.415 67.739,159.534 67.931 C 160.087 68.826,160.141 65.467,160.084 33.841 L 160.022 -0.120 159.963 33.928 M239.915 33.899 C 239.883 52.610,239.948 67.976,240.061 68.045 C 240.173 68.115,240.470 68.007,240.721 67.806 C 241.153 67.459,241.148 67.454,240.637 67.702 L 240.098 67.963 240.036 33.922 L 239.974 -0.120 239.915 33.899 M48.980 1.548 C 48.980 1.614,49.304 1.836,49.700 2.041 C 50.096 2.246,50.420 2.359,50.420 2.293 C 50.420 2.227,50.096 2.006,49.700 1.801 C 49.304 1.596,48.980 1.482,48.980 1.548 M350.180 1.921 C 349.784 2.183,349.568 2.396,349.700 2.394 C 349.941 2.390,351.246 1.455,351.020 1.447 C 350.954 1.445,350.576 1.658,350.180 1.921 M51.140 2.860 C 51.471 3.130,51.849 3.351,51.981 3.352 C 52.238 3.354,51.804 3.022,51.020 2.617 C 50.701 2.452,50.742 2.534,51.140 2.860 M347.934 3.232 C 346.243 4.310,346.030 4.580,347.539 3.734 C 348.624 3.125,349.615 2.391,349.331 2.407 C 349.270 2.410,348.641 2.782,347.934 3.232 M52.344 3.544 C 52.348 3.726,54.742 5.122,54.742 4.942 C 54.742 4.888,54.202 4.511,53.541 4.104 C 52.881 3.698,52.342 3.446,52.344 3.544 M56.182 5.870 C 56.182 5.936,56.507 6.158,56.903 6.363 C 57.299 6.567,57.623 6.681,57.623 6.615 C 57.623 6.549,57.299 6.327,56.903 6.122 C 56.507 5.918,56.182 5.804,56.182 5.870 M342.977 6.242 C 342.581 6.505,342.365 6.718,342.497 6.716 C 342.738 6.712,344.043 5.776,343.818 5.769 C 343.752 5.767,343.373 5.980,342.977 6.242 M58.343 7.171 C 58.673 7.439,59.376 7.886,59.904 8.162 C 61.106 8.792,60.200 8.086,58.724 7.243 C 57.914 6.780,57.848 6.768,58.343 7.171 M340.151 7.908 C 338.012 9.222,337.348 9.784,339.136 8.766 C 340.937 7.741,342.137 6.971,342.137 6.840 C 342.137 6.680,342.238 6.626,340.151 7.908 M62.185 9.471 C 62.185 9.537,62.509 9.759,62.905 9.964 C 63.301 10.169,63.625 10.282,63.625 10.216 C 63.625 10.150,63.301 9.929,62.905 9.724 C 62.509 9.519,62.185 9.405,62.185 9.471 M334.574 11.285 C 334.178 11.547,333.962 11.760,334.094 11.758 C 334.334 11.754,335.640 10.818,335.414 10.811 C 335.348 10.809,334.970 11.022,334.574 11.285 M66.747 12.223 C 67.077 12.493,67.455 12.715,67.587 12.716 C 67.844 12.718,67.410 12.385,66.627 11.981 C 66.308 11.816,66.348 11.897,66.747 12.223 M331.513 13.103 C 330.615 13.589,330.670 13.792,331.573 13.325 C 331.969 13.120,332.293 12.902,332.293 12.839 C 332.293 12.684,332.267 12.693,331.513 13.103 M70.588 14.513 C 70.588 14.580,70.912 14.801,71.309 15.006 C 71.705 15.211,72.029 15.324,72.029 15.258 C 72.029 15.192,71.705 14.971,71.309 14.766 C 70.912 14.561,70.588 14.447,70.588 14.513 M328.571 14.886 C 328.175 15.148,327.959 15.361,328.091 15.359 C 328.332 15.355,329.637 14.420,329.412 14.413 C 329.346 14.411,328.968 14.624,328.571 14.886 M325.724 16.563 C 323.782 17.774,323.071 18.309,324.130 17.762 C 325.602 17.002,328.120 15.304,327.671 15.376 C 327.638 15.381,326.762 15.915,325.724 16.563 M73.709 16.376 C 73.908 16.571,74.610 17.022,75.270 17.377 C 76.591 18.089,75.891 17.506,74.330 16.594 C 73.791 16.279,73.511 16.180,73.709 16.376 M78.992 19.555 C 78.992 19.622,79.316 19.843,79.712 20.048 C 80.108 20.253,80.432 20.366,80.432 20.300 C 80.432 20.234,80.108 20.013,79.712 19.808 C 79.316 19.603,78.992 19.489,78.992 19.555 M320.168 19.928 C 319.772 20.190,319.556 20.403,319.688 20.401 C 319.929 20.397,321.234 19.462,321.008 19.455 C 320.942 19.453,320.564 19.666,320.168 19.928 M80.912 20.705 C 81.110 20.904,81.813 21.358,82.473 21.713 C 83.797 22.426,83.088 21.824,81.533 20.915 C 80.994 20.600,80.714 20.505,80.912 20.705 M317.943 21.232 C 317.248 21.664,316.599 22.106,316.503 22.216 C 316.237 22.515,318.674 21.117,319.079 20.738 C 319.600 20.250,319.349 20.359,317.943 21.232 M86.194 23.877 C 86.194 23.943,86.519 24.165,86.915 24.370 C 87.311 24.575,87.635 24.688,87.635 24.622 C 87.635 24.556,87.311 24.335,86.915 24.130 C 86.519 23.925,86.194 23.811,86.194 23.877 M312.965 24.250 C 312.569 24.512,312.353 24.725,312.485 24.723 C 312.726 24.719,314.031 23.783,313.806 23.776 C 313.739 23.774,313.361 23.987,312.965 24.250 M88.355 25.178 C 88.685 25.447,89.388 25.893,89.916 26.170 C 91.118 26.799,90.212 26.093,88.736 25.250 C 87.926 24.787,87.860 24.775,88.355 25.178 M308.703 26.788 C 307.806 27.275,307.861 27.478,308.764 27.011 C 309.160 26.806,309.484 26.587,309.484 26.524 C 309.484 26.370,309.458 26.379,308.703 26.788 M0.132 28.053 C 0.559 28.430,2.161 29.331,2.161 29.194 C 2.161 29.033,0.328 27.851,0.077 27.851 C -0.018 27.851,0.007 27.942,0.132 28.053 M93.397 28.199 C 93.397 28.265,93.721 28.487,94.118 28.691 C 94.514 28.896,94.838 29.010,94.838 28.944 C 94.838 28.878,94.514 28.656,94.118 28.451 C 93.721 28.247,93.397 28.133,93.397 28.199 M304.562 29.292 C 304.166 29.554,303.950 29.767,304.082 29.765 C 304.322 29.761,305.628 28.826,305.402 28.818 C 305.336 28.816,304.958 29.029,304.562 29.292 M96.725 30.239 C 97.037 30.510,97.415 30.731,97.566 30.729 C 97.852 30.725,97.453 30.407,96.639 29.990 C 96.261 29.797,96.280 29.851,96.725 30.239 M3.601 30.120 C 3.601 30.186,3.926 30.407,4.322 30.612 C 4.718 30.817,5.042 30.931,5.042 30.865 C 5.042 30.799,4.718 30.577,4.322 30.372 C 3.926 30.167,3.601 30.054,3.601 30.120 M301.501 31.110 C 300.603 31.597,300.658 31.799,301.561 31.333 C 301.957 31.128,302.281 30.909,302.281 30.846 C 302.281 30.692,302.255 30.700,301.501 31.110 M393.929 31.417 C 393.298 31.789,392.649 32.235,392.489 32.407 C 392.190 32.729,393.698 31.896,394.738 31.165 C 395.639 30.532,395.200 30.668,393.929 31.417 M100.600 32.521 C 100.600 32.587,100.924 32.808,101.321 33.013 C 101.717 33.218,102.041 33.332,102.041 33.266 C 102.041 33.200,101.717 32.978,101.321 32.773 C 100.924 32.568,100.600 32.455,100.600 32.521 M298.559 32.893 C 298.163 33.156,297.947 33.368,298.079 33.366 C 298.320 33.363,299.625 32.427,299.400 32.420 C 299.334 32.418,298.956 32.631,298.559 32.893 M8.163 32.905 C 9.047 33.505,9.492 33.648,8.917 33.147 C 8.605 32.875,8.227 32.655,8.077 32.657 C 7.926 32.659,7.965 32.770,8.163 32.905 M102.281 33.444 C 102.281 33.569,104.783 35.195,105.822 35.745 C 106.957 36.346,106.295 35.769,104.862 34.907 C 104.037 34.411,103.118 33.851,102.821 33.662 C 102.524 33.473,102.281 33.375,102.281 33.444 M296.598 34.064 C 295.135 34.986,295.005 35.233,296.399 34.446 C 297.822 33.642,297.827 33.639,297.699 33.523 C 297.644 33.474,297.149 33.717,296.598 34.064 M10.804 34.441 C 10.804 34.507,11.128 34.729,11.525 34.934 C 11.921 35.139,12.245 35.252,12.245 35.186 C 12.245 35.120,11.921 34.899,11.525 34.694 C 11.128 34.489,10.804 34.375,10.804 34.441 M387.095 35.532 C 386.290 36.022,385.986 36.452,386.735 36.040 C 387.292 35.734,388.147 35.071,387.995 35.063 C 387.929 35.059,387.524 35.270,387.095 35.532 M14.046 36.379 C 14.310 36.594,14.742 36.876,15.006 37.006 L 15.486 37.241 15.006 36.850 C 14.742 36.635,14.310 36.353,14.046 36.224 L 13.565 35.988 14.046 36.379 M290.096 37.963 C 289.278 38.487,289.013 38.839,289.736 38.441 C 290.287 38.139,291.150 37.471,290.996 37.467 C 290.930 37.465,290.525 37.688,290.096 37.963 M16.567 37.947 C 17.399 38.512,17.874 38.677,17.287 38.197 C 16.957 37.927,16.579 37.705,16.447 37.704 C 16.315 37.703,16.369 37.812,16.567 37.947 M110.924 38.712 C 111.122 38.911,111.825 39.365,112.485 39.721 C 113.809 40.433,113.100 39.831,111.545 38.923 C 111.006 38.607,110.726 38.513,110.924 38.712 M18.127 38.824 C 18.259 38.960,18.908 39.374,19.568 39.743 C 20.228 40.113,20.660 40.304,20.528 40.167 C 20.396 40.031,19.748 39.618,19.088 39.248 C 18.427 38.879,17.995 38.688,18.127 38.824 M287.095 39.753 C 286.197 40.240,286.252 40.443,287.155 39.976 C 287.551 39.771,287.875 39.552,287.875 39.490 C 287.875 39.335,287.849 39.344,287.095 39.753 M379.284 40.235 C 378.529 40.707,377.911 41.152,377.911 41.223 C 377.911 41.294,378.199 41.163,378.551 40.933 C 378.902 40.702,379.551 40.301,379.991 40.041 C 380.682 39.633,380.966 39.376,380.725 39.376 C 380.688 39.376,380.039 39.762,379.284 40.235 M22.569 41.548 C 23.402 42.114,23.876 42.278,23.289 41.798 C 22.959 41.528,22.581 41.306,22.449 41.306 C 22.317 41.305,22.371 41.414,22.569 41.548 M376.891 41.674 C 375.993 42.161,376.048 42.364,376.951 41.897 C 377.347 41.692,377.671 41.473,377.671 41.410 C 377.671 41.256,377.645 41.265,376.891 41.674 M116.206 41.884 C 116.206 41.950,116.531 42.172,116.927 42.377 C 117.323 42.582,117.647 42.695,117.647 42.629 C 117.647 42.563,117.323 42.342,116.927 42.137 C 116.531 41.932,116.206 41.818,116.206 41.884 M282.953 42.257 C 282.557 42.519,282.341 42.732,282.473 42.730 C 282.714 42.726,284.019 41.791,283.794 41.784 C 283.727 41.782,283.349 41.995,282.953 42.257 M118.127 43.034 C 118.325 43.233,119.028 43.687,119.688 44.042 C 121.012 44.755,120.303 44.153,118.748 43.244 C 118.208 42.929,117.929 42.834,118.127 43.034 M281.393 43.229 L 280.792 43.711 281.453 43.425 C 281.816 43.269,282.113 43.050,282.113 42.939 C 282.113 42.665,282.080 42.678,281.393 43.229 M26.411 43.805 C 26.411 43.871,26.735 44.093,27.131 44.298 C 27.527 44.503,27.851 44.616,27.851 44.550 C 27.851 44.484,27.527 44.262,27.131 44.058 C 26.735 43.853,26.411 43.739,26.411 43.805 M372.929 43.991 C 372.632 44.134,372.389 44.345,372.389 44.460 C 372.389 44.575,372.659 44.492,372.989 44.276 C 373.870 43.699,373.839 43.552,372.929 43.991 M278.691 44.795 C 277.794 45.282,277.849 45.485,278.752 45.018 C 279.148 44.813,279.472 44.594,279.472 44.532 C 279.472 44.377,279.446 44.386,278.691 44.795 M371.155 45.152 C 370.710 45.540,370.691 45.593,371.068 45.400 C 371.883 44.983,372.282 44.665,371.995 44.662 C 371.845 44.660,371.467 44.880,371.155 45.152 M29.652 45.744 C 30.381 46.336,31.065 46.683,30.866 46.361 C 30.776 46.215,30.358 45.928,29.937 45.725 C 29.227 45.381,29.206 45.383,29.652 45.744 M368.487 46.716 C 367.590 47.203,367.644 47.406,368.547 46.939 C 368.944 46.734,369.268 46.515,369.268 46.452 C 369.268 46.298,369.242 46.307,368.487 46.716 M125.090 47.279 C 125.668 47.750,126.050 47.904,126.050 47.665 C 126.050 47.603,125.699 47.380,125.270 47.171 L 124.490 46.790 125.090 47.279 M274.490 47.327 C 273.671 47.851,273.407 48.203,274.130 47.805 C 274.681 47.502,275.544 46.835,275.390 46.830 C 275.324 46.828,274.919 47.052,274.490 47.327 M126.737 48.246 C 127.049 48.517,127.427 48.738,127.578 48.736 C 127.864 48.732,127.465 48.414,126.651 47.998 C 126.273 47.805,126.292 47.858,126.737 48.246 M33.733 48.188 C 33.866 48.324,34.514 48.738,35.174 49.107 C 35.834 49.477,36.267 49.667,36.134 49.531 C 36.002 49.395,35.354 48.981,34.694 48.612 C 34.034 48.242,33.601 48.052,33.733 48.188 M364.466 49.121 C 363.475 49.722,362.557 50.334,362.425 50.481 C 362.293 50.628,362.455 50.586,362.785 50.388 C 365.843 48.554,366.387 48.211,366.387 48.122 C 366.387 47.959,366.360 47.973,364.466 49.121 M270.888 49.485 C 270.195 49.889,269.628 50.275,269.628 50.343 C 269.628 50.476,271.763 49.289,272.137 48.948 C 272.544 48.576,272.174 48.735,270.888 49.485 M130.612 50.528 C 130.612 50.594,130.936 50.816,131.333 51.020 C 131.729 51.225,132.053 51.339,132.053 51.273 C 132.053 51.207,131.729 50.985,131.333 50.780 C 130.936 50.575,130.612 50.462,130.612 50.528 M268.547 50.900 C 268.151 51.163,267.935 51.376,268.067 51.374 C 268.308 51.370,269.613 50.434,269.388 50.427 C 269.322 50.425,268.944 50.638,268.547 50.900 M38.175 50.912 C 39.008 51.477,39.482 51.642,38.896 51.162 C 38.565 50.892,38.187 50.670,38.055 50.669 C 37.923 50.668,37.977 50.778,38.175 50.912 M361.285 51.038 C 360.387 51.525,360.442 51.727,361.345 51.261 C 361.741 51.056,362.065 50.837,362.065 50.774 C 362.065 50.620,362.039 50.628,361.285 51.038 M132.293 51.451 C 132.293 51.576,134.795 53.202,135.834 53.752 C 136.925 54.330,136.332 53.824,134.874 52.932 C 134.049 52.428,133.130 51.860,132.833 51.670 C 132.536 51.480,132.293 51.382,132.293 51.451 M266.987 51.873 L 266.387 52.354 267.047 52.069 C 267.410 51.912,267.707 51.693,267.707 51.582 C 267.707 51.308,267.674 51.322,266.987 51.873 M40.936 52.510 C 41.068 52.646,41.717 53.060,42.377 53.429 C 43.037 53.798,43.469 53.989,43.337 53.853 C 43.205 53.717,42.557 53.303,41.897 52.934 C 41.236 52.564,40.804 52.373,40.936 52.510 M357.083 53.539 C 356.278 54.029,355.974 54.459,356.723 54.048 C 357.280 53.741,358.135 53.078,357.983 53.070 C 357.917 53.066,357.512 53.277,357.083 53.539 M43.804 54.239 C 43.894 54.386,44.312 54.672,44.733 54.875 C 45.443 55.219,45.464 55.217,45.018 54.856 C 44.289 54.265,43.605 53.917,43.804 54.239 M260.864 55.494 C 259.348 56.432,258.872 56.902,260.144 56.205 C 261.115 55.673,262.406 54.753,262.185 54.752 C 262.119 54.751,261.525 55.085,260.864 55.494 M352.881 56.080 C 351.984 56.567,352.038 56.769,352.941 56.303 C 353.337 56.098,353.661 55.879,353.661 55.816 C 353.661 55.662,353.636 55.670,352.881 56.080 M140.936 56.719 C 141.134 56.919,141.837 57.372,142.497 57.728 C 143.821 58.440,143.112 57.839,141.557 56.930 C 141.018 56.615,140.738 56.520,140.936 56.719 M48.139 56.831 C 48.271 56.968,48.920 57.381,49.580 57.751 C 50.240 58.120,50.672 58.311,50.540 58.175 C 50.408 58.038,49.760 57.625,49.100 57.255 C 48.439 56.886,48.007 56.695,48.139 56.831 M349.272 58.242 C 348.517 58.714,347.899 59.152,347.899 59.216 C 347.899 59.338,349.345 58.502,350.321 57.816 C 351.360 57.085,350.679 57.362,349.272 58.242 M255.882 58.481 C 254.985 58.968,255.039 59.170,255.942 58.703 C 256.339 58.499,256.663 58.280,256.663 58.217 C 256.663 58.063,256.637 58.071,255.882 58.481 M52.581 59.556 C 53.414 60.121,53.888 60.285,53.301 59.805 C 52.971 59.535,52.593 59.314,52.461 59.313 C 52.329 59.312,52.383 59.421,52.581 59.556 M146.699 60.243 C 147.029 60.513,147.407 60.734,147.539 60.735 C 147.796 60.737,147.362 60.405,146.579 60.000 C 146.260 59.835,146.300 59.917,146.699 60.243 M252.941 60.264 C 252.545 60.526,252.344 60.742,252.494 60.743 C 252.757 60.744,254.028 59.807,253.782 59.793 C 253.715 59.790,253.337 60.002,252.941 60.264 M147.899 60.834 C 147.899 60.983,148.870 61.622,150.840 62.768 C 151.468 63.133,151.981 63.379,151.981 63.316 C 151.981 63.253,151.360 62.831,150.600 62.378 C 149.841 61.926,148.923 61.361,148.559 61.122 C 148.196 60.884,147.899 60.754,147.899 60.834 M251.381 61.236 L 250.780 61.718 251.441 61.433 C 251.804 61.276,252.101 61.057,252.101 60.946 C 252.101 60.672,252.068 60.685,251.381 61.236 M56.543 61.873 C 56.675 62.010,57.323 62.423,57.983 62.793 C 58.643 63.162,59.076 63.353,58.944 63.217 C 58.812 63.080,58.163 62.667,57.503 62.297 C 56.843 61.928,56.411 61.737,56.543 61.873 M248.679 62.802 C 247.782 63.289,247.837 63.492,248.739 63.025 C 249.136 62.820,249.460 62.601,249.460 62.539 C 249.460 62.384,249.434 62.393,248.679 62.802 M341.143 63.159 C 340.698 63.547,340.679 63.600,341.056 63.407 C 341.871 62.990,342.270 62.673,341.983 62.669 C 341.833 62.667,341.455 62.887,341.143 63.159 M59.664 63.750 C 59.928 63.965,60.360 64.247,60.624 64.377 L 61.104 64.612 60.624 64.221 C 60.360 64.006,59.928 63.724,59.664 63.595 L 59.184 63.359 59.664 63.750 M338.475 64.723 C 337.578 65.210,337.632 65.413,338.535 64.946 C 338.932 64.741,339.256 64.522,339.256 64.460 C 339.256 64.305,339.230 64.314,338.475 64.723 M155.102 65.286 C 155.680 65.757,156.062 65.911,156.062 65.672 C 156.062 65.610,155.711 65.387,155.282 65.178 L 154.502 64.797 155.102 65.286 M244.478 65.334 C 243.659 65.858,243.395 66.210,244.118 65.812 C 244.669 65.510,245.532 64.842,245.378 64.838 C 245.312 64.836,244.907 65.059,244.478 65.334 M156.543 66.073 C 156.953 66.497,159.184 67.815,159.184 67.634 C 159.184 67.568,158.823 67.302,158.383 67.042 C 157.942 66.782,157.267 66.374,156.882 66.135 C 156.381 65.824,156.285 65.807,156.543 66.073 M63.625 66.096 C 63.625 66.159,64.247 66.581,65.006 67.033 C 65.765 67.486,66.684 68.051,67.047 68.289 C 67.410 68.528,67.707 68.658,67.707 68.578 C 67.707 68.428,66.736 67.790,64.766 66.644 C 64.139 66.279,63.625 66.032,63.625 66.096 M335.118 66.701 C 334.492 67.056,333.979 67.427,333.977 67.525 C 333.975 67.623,334.514 67.370,335.174 66.964 C 335.834 66.558,336.375 66.181,336.375 66.126 C 336.375 65.987,336.381 65.983,335.118 66.701 M68.187 68.919 C 69.020 69.485,69.494 69.649,68.908 69.169 C 68.577 68.899,68.199 68.677,68.067 68.676 C 67.935 68.676,67.989 68.785,68.187 68.919 M331.273 69.045 C 330.375 69.532,330.430 69.735,331.333 69.268 C 331.729 69.063,332.053 68.844,332.053 68.781 C 332.053 68.627,332.027 68.636,331.273 69.045 M70.828 70.417 C 70.828 70.470,71.774 71.086,72.929 71.786 C 75.505 73.346,75.390 73.283,75.390 73.140 C 75.390 73.075,74.445 72.457,73.289 71.767 C 70.774 70.265,70.828 70.295,70.828 70.417 M326.771 71.810 C 326.372 72.136,326.332 72.218,326.651 72.053 C 327.434 71.648,327.868 71.316,327.611 71.318 C 327.479 71.318,327.101 71.540,326.771 71.810 M322.869 74.087 C 321.972 74.574,322.026 74.777,322.929 74.310 C 323.325 74.105,323.649 73.886,323.649 73.823 C 323.649 73.669,323.624 73.678,322.869 74.087 M79.232 75.459 C 79.232 75.522,79.907 75.973,80.732 76.461 C 81.558 76.949,82.071 77.192,81.873 77.000 C 81.444 76.585,79.232 75.295,79.232 75.459 M319.260 76.249 C 318.505 76.721,317.887 77.160,317.887 77.223 C 317.887 77.345,319.333 76.509,320.309 75.823 C 321.348 75.092,320.667 75.369,319.260 76.249 M82.353 77.425 C 82.353 77.487,82.704 77.710,83.133 77.919 L 83.914 78.300 83.313 77.811 C 82.735 77.340,82.353 77.186,82.353 77.425 M313.937 79.462 C 313.415 79.806,313.320 79.965,313.577 80.062 C 313.769 80.135,333.319 80.167,357.023 80.133 L 400.120 80.071 356.903 80.006 C 313.962 79.942,313.689 79.938,314.286 79.472 C 315.061 78.866,314.850 78.860,313.937 79.462 M43.217 79.952 L -0.120 80.074 43.143 80.133 C 71.790 80.172,86.456 80.111,86.555 79.952 C 86.636 79.820,86.670 79.738,86.629 79.771 C 86.588 79.803,67.053 79.885,43.217 79.952 M15.486 160.082 C 56.972 160.246,86.618 160.247,86.518 160.084 C 86.456 159.985,66.938 159.930,43.143 159.962 C 19.348 159.994,6.903 160.048,15.486 160.082 M313.482 160.084 C 313.382 160.247,343.028 160.246,384.514 160.082 C 393.097 160.048,380.652 159.994,356.857 159.962 C 333.062 159.930,313.544 159.985,313.482 160.084 M82.953 162.305 C 82.557 162.567,82.341 162.780,82.473 162.778 C 82.714 162.774,84.019 161.839,83.794 161.832 C 83.727 161.830,83.349 162.043,82.953 162.305 M316.206 161.932 C 316.206 161.998,316.531 162.220,316.927 162.425 C 317.323 162.630,317.647 162.743,317.647 162.677 C 317.647 162.611,317.323 162.390,316.927 162.185 C 316.531 161.980,316.206 161.866,316.206 161.932 M81.393 163.277 L 80.792 163.759 81.453 163.473 C 81.816 163.317,82.113 163.098,82.113 162.987 C 82.113 162.713,82.080 162.726,81.393 163.277 M318.127 163.072 C 318.537 163.496,320.768 164.814,320.768 164.632 C 320.768 164.567,320.408 164.301,319.967 164.041 C 319.527 163.781,318.851 163.373,318.467 163.134 C 317.966 162.823,317.869 162.806,318.127 163.072 M78.691 164.843 C 77.794 165.330,77.849 165.533,78.752 165.066 C 79.148 164.861,79.472 164.642,79.472 164.580 C 79.472 164.425,79.446 164.434,78.691 164.843 M74.490 167.375 C 73.671 167.899,73.407 168.251,74.130 167.853 C 74.681 167.550,75.544 166.883,75.390 166.878 C 75.324 166.876,74.919 167.100,74.490 167.375 M325.090 167.327 C 325.668 167.798,326.050 167.952,326.050 167.713 C 326.050 167.651,325.699 167.428,325.270 167.219 L 324.490 166.838 325.090 167.327 M326.737 168.294 C 327.049 168.565,327.427 168.786,327.578 168.784 C 327.864 168.780,327.465 168.462,326.651 168.046 C 326.273 167.853,326.292 167.906,326.737 168.294 M70.888 169.533 C 70.195 169.937,69.628 170.323,69.628 170.391 C 69.628 170.524,71.763 169.337,72.137 168.996 C 72.544 168.624,72.174 168.783,70.888 169.533 M68.547 170.948 C 68.151 171.211,67.935 171.424,68.067 171.422 C 68.308 171.418,69.613 170.482,69.388 170.475 C 69.322 170.473,68.944 170.686,68.547 170.948 M330.612 170.576 C 330.612 170.642,330.936 170.864,331.333 171.068 C 331.729 171.273,332.053 171.387,332.053 171.321 C 332.053 171.255,331.729 171.033,331.333 170.828 C 330.936 170.623,330.612 170.510,330.612 170.576 M66.987 171.921 L 66.387 172.402 67.047 172.117 C 67.410 171.960,67.707 171.741,67.707 171.630 C 67.707 171.356,67.674 171.370,66.987 171.921 M332.293 171.499 C 332.293 171.624,334.795 173.250,335.834 173.800 C 336.925 174.378,336.332 173.872,334.874 172.980 C 334.049 172.476,333.130 171.908,332.833 171.718 C 332.536 171.529,332.293 171.430,332.293 171.499 M159.534 172.165 C 159.415 172.357,159.448 172.402,159.627 172.292 C 159.836 172.163,159.919 180.506,159.963 206.168 L 160.022 240.216 160.084 206.255 C 160.141 174.629,160.087 171.270,159.534 172.165 M239.967 172.209 C 239.904 172.374,239.881 187.743,239.915 206.363 L 239.978 240.216 240.037 206.168 C 240.081 180.506,240.164 172.163,240.373 172.292 C 240.545 172.398,240.585 172.358,240.479 172.186 C 240.258 171.829,240.109 171.835,239.967 172.209 M240.936 172.558 C 241.068 172.694,241.717 173.108,242.377 173.477 C 243.037 173.846,243.469 174.037,243.337 173.901 C 243.205 173.765,242.557 173.351,241.897 172.982 C 241.236 172.612,240.804 172.421,240.936 172.558 M157.083 173.587 C 156.278 174.077,155.974 174.507,156.723 174.096 C 157.280 173.789,158.135 173.126,157.983 173.118 C 157.917 173.114,157.512 173.325,157.083 173.587 M243.804 174.287 C 243.894 174.434,244.312 174.720,244.733 174.923 C 245.443 175.267,245.464 175.265,245.018 174.904 C 244.289 174.313,243.605 173.965,243.804 174.287 M60.084 176.018 C 59.655 176.293,59.304 176.564,59.304 176.620 C 59.304 176.791,60.703 176.012,60.863 175.752 C 61.072 175.415,60.974 175.448,60.084 176.018 M152.881 176.128 C 151.984 176.615,152.038 176.817,152.941 176.351 C 153.337 176.146,153.661 175.927,153.661 175.864 C 153.661 175.710,153.636 175.718,152.881 176.128 M340.936 176.767 C 341.134 176.967,341.837 177.420,342.497 177.776 C 343.821 178.488,343.112 177.887,341.557 176.978 C 341.018 176.663,340.738 176.568,340.936 176.767 M248.139 176.879 C 248.271 177.016,248.920 177.429,249.580 177.799 C 250.240 178.168,250.672 178.359,250.540 178.223 C 250.408 178.086,249.760 177.673,249.100 177.303 C 248.439 176.934,248.007 176.743,248.139 176.879 M149.272 178.290 C 148.517 178.762,147.899 179.200,147.899 179.264 C 147.899 179.386,149.345 178.550,150.321 177.864 C 151.360 177.133,150.679 177.410,149.272 178.290 M55.882 178.529 C 54.985 179.016,55.039 179.218,55.942 178.752 C 56.339 178.547,56.663 178.328,56.663 178.265 C 56.663 178.111,56.637 178.119,55.882 178.529 M252.581 179.604 C 253.414 180.169,253.888 180.333,253.301 179.853 C 252.971 179.583,252.593 179.362,252.461 179.361 C 252.329 179.360,252.383 179.469,252.581 179.604 M52.941 180.312 C 52.545 180.574,52.344 180.790,52.494 180.791 C 52.757 180.792,54.028 179.855,53.782 179.842 C 53.715 179.838,53.337 180.050,52.941 180.312 M346.699 180.291 C 347.029 180.561,347.407 180.782,347.539 180.783 C 347.796 180.785,347.362 180.453,346.579 180.048 C 346.260 179.883,346.300 179.965,346.699 180.291 M51.381 181.284 L 50.780 181.766 51.441 181.481 C 51.804 181.324,52.101 181.105,52.101 180.994 C 52.101 180.720,52.068 180.733,51.381 181.284 M347.899 180.882 C 347.899 181.031,348.870 181.670,350.840 182.816 C 351.468 183.181,351.981 183.427,351.981 183.364 C 351.981 183.301,351.360 182.879,350.600 182.426 C 349.841 181.974,348.923 181.409,348.559 181.170 C 348.196 180.932,347.899 180.802,347.899 180.882 M256.543 181.921 C 256.675 182.058,257.323 182.471,257.983 182.841 C 258.643 183.210,259.076 183.401,258.944 183.265 C 258.812 183.128,258.163 182.715,257.503 182.345 C 256.843 181.976,256.411 181.785,256.543 181.921 M48.679 182.850 C 47.782 183.337,47.837 183.540,48.739 183.073 C 49.136 182.868,49.460 182.650,49.460 182.587 C 49.460 182.432,49.434 182.441,48.679 182.850 M141.143 183.207 C 140.698 183.595,140.679 183.648,141.056 183.455 C 141.871 183.038,142.270 182.721,141.983 182.717 C 141.833 182.715,141.455 182.935,141.143 183.207 M259.664 183.798 C 259.928 184.013,260.360 184.295,260.624 184.425 L 261.104 184.660 260.624 184.269 C 260.360 184.054,259.928 183.772,259.664 183.643 L 259.184 183.407 259.664 183.798 M138.475 184.771 C 137.578 185.258,137.632 185.461,138.535 184.994 C 138.932 184.789,139.256 184.570,139.256 184.508 C 139.256 184.353,139.230 184.362,138.475 184.771 M44.478 185.382 C 43.659 185.906,43.395 186.258,44.118 185.860 C 44.669 185.558,45.532 184.890,45.378 184.886 C 45.312 184.884,44.907 185.107,44.478 185.382 M355.102 185.334 C 355.680 185.805,356.062 185.959,356.062 185.720 C 356.062 185.658,355.711 185.435,355.282 185.226 L 354.502 184.845 355.102 185.334 M356.543 186.121 C 356.953 186.545,359.184 187.863,359.184 187.682 C 359.184 187.616,358.823 187.350,358.383 187.090 C 357.942 186.830,357.267 186.422,356.882 186.183 C 356.381 185.872,356.285 185.855,356.543 186.121 M135.118 186.749 C 134.492 187.104,133.979 187.475,133.977 187.573 C 133.975 187.671,134.514 187.418,135.174 187.012 C 135.834 186.606,136.375 186.229,136.375 186.174 C 136.375 186.035,136.381 186.031,135.118 186.749 M263.625 186.144 C 263.625 186.207,264.247 186.629,265.006 187.081 C 265.765 187.534,266.684 188.099,267.047 188.338 C 267.410 188.576,267.707 188.706,267.707 188.626 C 267.707 188.476,266.736 187.838,264.766 186.692 C 264.139 186.327,263.625 186.080,263.625 186.144 M40.216 187.995 C 39.820 188.258,39.604 188.471,39.736 188.468 C 39.977 188.465,41.282 187.529,41.056 187.522 C 40.990 187.520,40.612 187.733,40.216 187.995 M38.535 188.956 C 38.139 189.218,37.923 189.431,38.055 189.429 C 38.296 189.425,39.601 188.489,39.376 188.482 C 39.310 188.480,38.932 188.693,38.535 188.956 M360.624 188.583 C 360.624 188.649,360.948 188.871,361.345 189.076 C 361.741 189.280,362.065 189.394,362.065 189.328 C 362.065 189.262,361.741 189.040,361.345 188.836 C 360.948 188.631,360.624 188.517,360.624 188.583 M131.273 189.093 C 130.375 189.580,130.430 189.783,131.333 189.316 C 131.729 189.111,132.053 188.892,132.053 188.829 C 132.053 188.675,132.027 188.684,131.273 189.093 M268.187 188.967 C 269.020 189.533,269.494 189.697,268.908 189.217 C 268.577 188.947,268.199 188.725,268.067 188.725 C 267.935 188.724,267.989 188.833,268.187 188.967 M36.975 189.928 L 36.375 190.409 37.035 190.124 C 37.398 189.967,37.695 189.748,37.695 189.637 C 37.695 189.363,37.662 189.377,36.975 189.928 M362.305 189.559 C 362.305 189.678,363.405 190.388,365.246 191.459 C 365.873 191.824,366.387 192.069,366.387 192.003 C 366.387 191.938,365.981 191.642,365.486 191.346 C 362.703 189.682,362.305 189.458,362.305 189.559 M270.828 190.465 C 270.828 190.518,271.774 191.134,272.929 191.834 C 275.505 193.394,275.390 193.331,275.390 193.188 C 275.390 193.123,274.445 192.505,273.289 191.815 C 270.774 190.313,270.828 190.343,270.828 190.465 M126.771 191.858 C 126.372 192.184,126.332 192.266,126.651 192.101 C 127.434 191.696,127.868 191.364,127.611 191.366 C 127.479 191.366,127.101 191.588,126.771 191.858 M33.073 192.214 C 32.176 192.701,32.230 192.904,33.133 192.437 C 33.529 192.232,33.854 192.013,33.854 191.951 C 33.854 191.796,33.828 191.805,33.073 192.214 M30.852 193.549 C 29.218 194.561,28.891 194.953,30.372 194.127 C 31.459 193.520,32.446 192.790,32.164 192.802 C 32.103 192.804,31.513 193.141,30.852 193.549 M369.474 193.984 C 369.786 194.256,370.164 194.476,370.315 194.474 C 370.601 194.470,370.202 194.152,369.388 193.736 C 369.010 193.543,369.029 193.596,369.474 193.984 M122.869 194.135 C 121.972 194.622,122.026 194.825,122.929 194.358 C 123.325 194.153,123.649 193.934,123.649 193.871 C 123.649 193.717,123.624 193.726,122.869 194.135 M370.948 194.765 C 371.358 195.188,373.589 196.507,373.589 196.325 C 373.589 196.260,373.229 195.993,372.788 195.733 C 372.348 195.473,371.673 195.065,371.288 194.827 C 370.787 194.516,370.690 194.498,370.948 194.765 M119.260 196.297 C 118.505 196.769,117.887 197.208,117.887 197.271 C 117.887 197.393,119.333 196.557,120.309 195.871 C 121.348 195.140,120.667 195.417,119.260 196.297 M279.232 195.507 C 279.232 195.570,279.907 196.021,280.732 196.509 C 281.558 196.997,282.071 197.240,281.873 197.048 C 281.444 196.633,279.232 195.343,279.232 195.507 M25.870 196.536 C 24.973 197.023,25.027 197.226,25.930 196.759 C 26.327 196.554,26.651 196.335,26.651 196.272 C 26.651 196.118,26.625 196.127,25.870 196.536 M282.353 197.473 C 282.353 197.535,282.704 197.758,283.133 197.967 L 283.914 198.348 283.313 197.859 C 282.735 197.388,282.353 197.234,282.353 197.473 M22.929 198.319 C 22.533 198.582,22.332 198.797,22.482 198.798 C 22.745 198.799,24.016 197.862,23.770 197.849 C 23.703 197.845,23.325 198.057,22.929 198.319 M376.711 198.298 C 377.041 198.568,377.419 198.790,377.551 198.791 C 377.808 198.792,377.374 198.460,376.591 198.055 C 376.272 197.890,376.312 197.972,376.711 198.298 M377.911 198.889 C 377.911 199.039,378.882 199.677,380.852 200.823 C 381.480 201.188,381.993 201.435,381.993 201.371 C 381.993 201.308,381.372 200.886,380.612 200.434 C 379.853 199.981,378.935 199.416,378.571 199.178 C 378.208 198.939,377.911 198.809,377.911 198.889 M113.505 199.765 C 112.878 200.159,112.365 200.534,112.365 200.598 C 112.365 200.663,112.905 200.383,113.565 199.977 C 114.226 199.571,114.766 199.194,114.766 199.139 C 114.766 198.981,114.708 199.010,113.505 199.765 M286.435 199.833 C 286.435 199.899,286.840 200.195,287.335 200.491 C 290.118 202.155,290.516 202.379,290.516 202.278 C 290.516 202.159,289.416 201.448,287.575 200.378 C 286.948 200.013,286.435 199.768,286.435 199.833 M18.667 200.858 C 17.770 201.345,17.825 201.547,18.727 201.080 C 19.124 200.876,19.448 200.657,19.448 200.594 C 19.448 200.440,19.422 200.448,18.667 200.858 M111.131 201.214 C 110.686 201.602,110.667 201.655,111.044 201.462 C 111.859 201.046,112.258 200.728,111.971 200.724 C 111.821 200.722,111.443 200.942,111.131 201.214 M16.617 202.080 C 16.050 202.422,15.635 202.750,15.694 202.809 C 15.801 202.915,17.767 201.700,17.767 201.529 C 17.767 201.393,17.718 201.417,16.617 202.080 M108.463 202.778 C 107.566 203.265,107.620 203.468,108.523 203.001 C 108.920 202.796,109.244 202.577,109.244 202.515 C 109.244 202.360,109.218 202.369,108.463 202.778 M14.584 203.341 C 13.597 203.973,13.461 204.196,14.331 203.754 C 14.751 203.540,15.163 203.256,15.245 203.123 C 15.438 202.811,15.380 202.830,14.584 203.341 M385.094 203.293 C 386.025 203.981,387.669 204.901,387.275 204.513 C 387.077 204.318,386.375 203.867,385.714 203.511 C 385.054 203.155,384.775 203.057,385.094 203.293 M105.462 204.589 C 104.644 205.114,104.379 205.465,105.102 205.068 C 105.653 204.765,106.516 204.098,106.363 204.093 C 106.297 204.091,105.891 204.315,105.462 204.589 M293.637 204.145 C 293.637 204.205,294.313 204.666,295.138 205.171 C 295.963 205.675,296.882 206.243,297.179 206.433 C 297.476 206.623,297.719 206.713,297.719 206.633 C 297.719 206.484,296.748 205.845,294.778 204.699 C 294.151 204.334,293.637 204.085,293.637 204.145 M387.755 204.910 C 387.755 204.976,388.079 205.197,388.475 205.402 C 388.872 205.607,389.196 205.721,389.196 205.655 C 389.196 205.589,388.872 205.367,388.475 205.162 C 388.079 204.957,387.755 204.844,387.755 204.910 M10.204 206.002 C 9.808 206.265,9.592 206.478,9.724 206.476 C 9.965 206.472,11.270 205.536,11.044 205.529 C 10.978 205.527,10.600 205.740,10.204 206.002 M8.043 207.235 C 6.409 208.246,6.082 208.639,7.563 207.812 C 8.650 207.205,9.637 206.476,9.355 206.487 C 9.294 206.490,8.703 206.826,8.043 207.235 M101.261 207.100 C 100.363 207.587,100.418 207.790,101.321 207.323 C 101.717 207.118,102.041 206.899,102.041 206.837 C 102.041 206.682,102.015 206.691,101.261 207.100 M392.557 207.753 C 393.103 208.263,394.826 209.253,394.638 208.949 C 394.547 208.802,393.961 208.397,393.335 208.049 C 392.709 207.701,392.359 207.568,392.557 207.753 M302.041 209.214 C 302.041 209.270,302.425 209.543,302.896 209.821 C 303.366 210.098,303.683 210.216,303.601 210.083 C 303.440 209.823,302.041 209.043,302.041 209.214 M394.958 209.231 C 394.958 209.297,395.282 209.519,395.678 209.724 C 396.074 209.929,396.399 210.042,396.399 209.976 C 396.399 209.910,396.074 209.689,395.678 209.484 C 395.282 209.279,394.958 209.165,394.958 209.231 M96.759 209.865 C 96.360 210.191,96.320 210.273,96.639 210.108 C 97.422 209.703,97.856 209.371,97.599 209.373 C 97.467 209.374,97.089 209.595,96.759 209.865 M3.061 210.221 C 2.164 210.708,2.218 210.911,3.121 210.444 C 3.517 210.239,3.842 210.020,3.842 209.958 C 3.842 209.803,3.816 209.812,3.061 210.221 M1.011 211.444 C 0.444 211.786,0.029 212.113,0.088 212.172 C 0.205 212.290,2.161 211.110,2.161 210.921 C 2.161 210.753,2.144 210.761,1.011 211.444 M92.857 212.142 C 91.960 212.629,92.014 212.832,92.917 212.365 C 93.313 212.160,93.637 211.941,93.637 211.879 C 93.637 211.724,93.612 211.733,92.857 212.142 M89.856 213.923 C 89.052 214.413,88.747 214.843,89.496 214.432 C 90.053 214.125,90.908 213.462,90.756 213.454 C 90.690 213.450,90.285 213.661,89.856 213.923 M309.244 213.519 C 309.244 213.584,309.604 213.851,310.045 214.111 C 310.485 214.371,311.161 214.779,311.545 215.017 C 312.046 215.328,312.143 215.346,311.885 215.079 C 311.475 214.655,309.244 213.337,309.244 213.519 M312.365 215.480 C 312.365 215.543,312.716 215.765,313.145 215.975 L 313.926 216.355 313.325 215.866 C 312.747 215.395,312.365 215.241,312.365 215.480 M84.559 217.136 C 83.593 217.711,82.675 218.315,82.518 218.478 C 82.231 218.776,85.877 216.668,86.303 216.289 C 86.765 215.878,86.271 216.118,84.559 217.136 M316.447 217.841 C 316.447 217.906,316.807 218.172,317.248 218.432 C 317.688 218.692,318.363 219.100,318.748 219.339 C 319.249 219.650,319.346 219.667,319.088 219.401 C 318.678 218.977,316.447 217.659,316.447 217.841 M81.119 219.221 C 80.674 219.609,80.655 219.662,81.032 219.469 C 81.847 219.053,82.246 218.735,81.959 218.731 C 81.809 218.729,81.431 218.950,81.119 219.221 M78.451 220.786 C 77.554 221.273,77.608 221.475,78.511 221.008 C 78.908 220.804,79.232 220.585,79.232 220.522 C 79.232 220.368,79.206 220.376,78.451 220.786 M320.768 220.516 C 320.768 220.582,321.092 220.804,321.489 221.008 C 321.885 221.213,322.209 221.327,322.209 221.261 C 322.209 221.195,321.885 220.973,321.489 220.768 C 321.092 220.563,320.768 220.450,320.768 220.516 M75.450 222.597 C 74.632 223.121,74.367 223.473,75.090 223.075 C 75.641 222.772,76.504 222.105,76.351 222.101 C 76.285 222.099,75.879 222.322,75.450 222.597 M325.310 223.218 C 326.292 223.949,327.974 224.870,327.251 224.282 C 326.921 224.013,326.218 223.567,325.690 223.290 C 324.978 222.917,324.880 222.899,325.310 223.218 M70.153 225.780 C 69.188 226.354,68.269 226.958,68.112 227.121 C 67.825 227.420,71.471 225.312,71.897 224.933 C 72.360 224.521,71.865 224.761,70.153 225.780 M332.413 227.497 C 333.142 228.088,333.826 228.436,333.627 228.113 C 333.537 227.967,333.119 227.681,332.698 227.478 C 331.988 227.134,331.967 227.136,332.413 227.497 M66.747 227.871 L 66.146 228.360 66.927 227.979 C 67.356 227.770,67.707 227.547,67.707 227.485 C 67.707 227.246,67.325 227.400,66.747 227.871 M62.845 230.149 C 61.948 230.636,62.002 230.839,62.905 230.372 C 63.301 230.167,63.625 229.948,63.625 229.886 C 63.625 229.731,63.600 229.740,62.845 230.149 M336.375 229.880 C 336.375 229.946,336.699 230.167,337.095 230.372 C 337.491 230.577,337.815 230.691,337.815 230.625 C 337.815 230.559,337.491 230.337,337.095 230.132 C 336.699 229.927,336.375 229.814,336.375 229.880 M60.624 231.484 C 59.108 232.423,58.632 232.893,59.904 232.195 C 60.875 231.663,62.166 230.744,61.945 230.742 C 61.879 230.742,61.285 231.076,60.624 231.484 M339.715 231.858 C 340.639 232.551,342.293 233.475,341.897 233.077 C 341.699 232.877,340.996 232.423,340.336 232.068 C 339.676 231.713,339.397 231.618,339.715 231.858 M342.377 233.481 C 342.377 233.547,342.701 233.769,343.097 233.974 C 343.493 234.178,343.818 234.292,343.818 234.226 C 343.818 234.160,343.493 233.938,343.097 233.733 C 342.701 233.529,342.377 233.415,342.377 233.481 M54.547 235.144 C 53.581 235.718,52.663 236.321,52.506 236.484 C 52.247 236.752,52.895 236.395,55.522 234.825 C 56.284 234.369,56.612 234.085,56.363 234.096 C 56.330 234.098,55.513 234.569,54.547 235.144 M348.139 236.987 C 349.023 237.586,349.468 237.729,348.893 237.228 C 348.581 236.957,348.203 236.736,348.053 236.738 C 347.902 236.740,347.941 236.852,348.139 236.987 M47.826 239.168 C 47.126 239.576,46.599 239.956,46.655 240.012 C 46.756 240.114,49.220 238.661,49.220 238.500 C 49.220 238.363,49.156 238.393,47.826 239.168 M350.780 238.523 C 350.780 238.589,351.104 238.811,351.501 239.016 C 351.897 239.220,352.221 239.334,352.221 239.268 C 352.221 239.202,351.897 238.980,351.501 238.776 C 351.104 238.571,350.780 238.457,350.780 238.523 " stroke="none" fill="#b4bcd4" fill-rule="evenodd"></path></g></svg>